%TF.GenerationSoftware,KiCad,Pcbnew,(5.99.0-9211-g6536d1de72)*%
%TF.CreationDate,2021-02-22T16:11:53-08:00*%
%TF.ProjectId,SoundLens,536f756e-644c-4656-9e73-2e6b69636164,rev?*%
%TF.SameCoordinates,Original*%
%TF.FileFunction,Legend,Bot*%
%TF.FilePolarity,Positive*%
%FSLAX46Y46*%
G04 Gerber Fmt 4.6, Leading zero omitted, Abs format (unit mm)*
G04 Created by KiCad (PCBNEW (5.99.0-9211-g6536d1de72)) date 2021-02-22 16:11:53*
%MOMM*%
%LPD*%
G01*
G04 APERTURE LIST*
%ADD10C,0.250000*%
%ADD11C,0.150000*%
G04 APERTURE END LIST*
D10*
X91678223Y-118715313D02*
G75*
G02*
X108220000Y-118760000I8321788J18819267D01*
G01*
D11*
X90603333Y-115326666D02*
X91303333Y-115326666D01*
X90603333Y-115026666D02*
X90970000Y-115026666D01*
X91036666Y-115060000D01*
X91070000Y-115126666D01*
X91070000Y-115226666D01*
X91036666Y-115293333D01*
X91003333Y-115326666D01*
X91070000Y-114793333D02*
X91070000Y-114526666D01*
X91303333Y-114693333D02*
X90703333Y-114693333D01*
X90636666Y-114660000D01*
X90603333Y-114593333D01*
X90603333Y-114526666D01*
X91070000Y-114393333D02*
X91070000Y-114126666D01*
X91303333Y-114293333D02*
X90703333Y-114293333D01*
X90636666Y-114260000D01*
X90603333Y-114193333D01*
X90603333Y-114126666D01*
X91070000Y-113893333D02*
X90370000Y-113893333D01*
X91036666Y-113893333D02*
X91070000Y-113826666D01*
X91070000Y-113693333D01*
X91036666Y-113626666D01*
X91003333Y-113593333D01*
X90936666Y-113560000D01*
X90736666Y-113560000D01*
X90670000Y-113593333D01*
X90636666Y-113626666D01*
X90603333Y-113693333D01*
X90603333Y-113826666D01*
X90636666Y-113893333D01*
X90636666Y-113293333D02*
X90603333Y-113226666D01*
X90603333Y-113093333D01*
X90636666Y-113026666D01*
X90703333Y-112993333D01*
X90736666Y-112993333D01*
X90803333Y-113026666D01*
X90836666Y-113093333D01*
X90836666Y-113193333D01*
X90870000Y-113260000D01*
X90936666Y-113293333D01*
X90970000Y-113293333D01*
X91036666Y-113260000D01*
X91070000Y-113193333D01*
X91070000Y-113093333D01*
X91036666Y-113026666D01*
X90670000Y-112693333D02*
X90636666Y-112660000D01*
X90603333Y-112693333D01*
X90636666Y-112726666D01*
X90670000Y-112693333D01*
X90603333Y-112693333D01*
X91036666Y-112693333D02*
X91003333Y-112660000D01*
X90970000Y-112693333D01*
X91003333Y-112726666D01*
X91036666Y-112693333D01*
X90970000Y-112693333D01*
X91336666Y-111860000D02*
X90436666Y-112460000D01*
X91336666Y-111126666D02*
X90436666Y-111726666D01*
X91070000Y-110960000D02*
X90603333Y-110793333D01*
X91070000Y-110626666D01*
X90603333Y-110360000D02*
X91070000Y-110360000D01*
X91303333Y-110360000D02*
X91270000Y-110393333D01*
X91236666Y-110360000D01*
X91270000Y-110326666D01*
X91303333Y-110360000D01*
X91236666Y-110360000D01*
X91070000Y-110126666D02*
X91070000Y-109860000D01*
X91303333Y-110026666D02*
X90703333Y-110026666D01*
X90636666Y-109993333D01*
X90603333Y-109926666D01*
X90603333Y-109860000D01*
X90603333Y-109326666D02*
X90970000Y-109326666D01*
X91036666Y-109360000D01*
X91070000Y-109426666D01*
X91070000Y-109560000D01*
X91036666Y-109626666D01*
X90636666Y-109326666D02*
X90603333Y-109393333D01*
X90603333Y-109560000D01*
X90636666Y-109626666D01*
X90703333Y-109660000D01*
X90770000Y-109660000D01*
X90836666Y-109626666D01*
X90870000Y-109560000D01*
X90870000Y-109393333D01*
X90903333Y-109326666D01*
X90603333Y-108893333D02*
X90636666Y-108960000D01*
X90703333Y-108993333D01*
X91303333Y-108993333D01*
X91070000Y-108693333D02*
X90603333Y-108526666D01*
X91070000Y-108360000D02*
X90603333Y-108526666D01*
X90436666Y-108593333D01*
X90403333Y-108626666D01*
X90370000Y-108693333D01*
X90670000Y-108093333D02*
X90636666Y-108060000D01*
X90603333Y-108093333D01*
X90636666Y-108126666D01*
X90670000Y-108093333D01*
X90603333Y-108093333D01*
X90636666Y-107460000D02*
X90603333Y-107526666D01*
X90603333Y-107660000D01*
X90636666Y-107726666D01*
X90670000Y-107760000D01*
X90736666Y-107793333D01*
X90936666Y-107793333D01*
X91003333Y-107760000D01*
X91036666Y-107726666D01*
X91070000Y-107660000D01*
X91070000Y-107526666D01*
X91036666Y-107460000D01*
X90603333Y-107060000D02*
X90636666Y-107126666D01*
X90670000Y-107160000D01*
X90736666Y-107193333D01*
X90936666Y-107193333D01*
X91003333Y-107160000D01*
X91036666Y-107126666D01*
X91070000Y-107060000D01*
X91070000Y-106960000D01*
X91036666Y-106893333D01*
X91003333Y-106860000D01*
X90936666Y-106826666D01*
X90736666Y-106826666D01*
X90670000Y-106860000D01*
X90636666Y-106893333D01*
X90603333Y-106960000D01*
X90603333Y-107060000D01*
X90603333Y-106226666D02*
X91303333Y-106226666D01*
X90636666Y-106226666D02*
X90603333Y-106293333D01*
X90603333Y-106426666D01*
X90636666Y-106493333D01*
X90670000Y-106526666D01*
X90736666Y-106560000D01*
X90936666Y-106560000D01*
X91003333Y-106526666D01*
X91036666Y-106493333D01*
X91070000Y-106426666D01*
X91070000Y-106293333D01*
X91036666Y-106226666D01*
X90636666Y-105626666D02*
X90603333Y-105693333D01*
X90603333Y-105826666D01*
X90636666Y-105893333D01*
X90703333Y-105926666D01*
X90970000Y-105926666D01*
X91036666Y-105893333D01*
X91070000Y-105826666D01*
X91070000Y-105693333D01*
X91036666Y-105626666D01*
X90970000Y-105593333D01*
X90903333Y-105593333D01*
X90836666Y-105926666D01*
X90636666Y-105326666D02*
X90603333Y-105260000D01*
X90603333Y-105126666D01*
X90636666Y-105060000D01*
X90703333Y-105026666D01*
X90736666Y-105026666D01*
X90803333Y-105060000D01*
X90836666Y-105126666D01*
X90836666Y-105226666D01*
X90870000Y-105293333D01*
X90936666Y-105326666D01*
X90970000Y-105326666D01*
X91036666Y-105293333D01*
X91070000Y-105226666D01*
X91070000Y-105126666D01*
X91036666Y-105060000D01*
X91336666Y-104226666D02*
X90436666Y-104826666D01*
X90636666Y-104026666D02*
X90603333Y-103960000D01*
X90603333Y-103826666D01*
X90636666Y-103760000D01*
X90703333Y-103726666D01*
X90736666Y-103726666D01*
X90803333Y-103760000D01*
X90836666Y-103826666D01*
X90836666Y-103926666D01*
X90870000Y-103993333D01*
X90936666Y-104026666D01*
X90970000Y-104026666D01*
X91036666Y-103993333D01*
X91070000Y-103926666D01*
X91070000Y-103826666D01*
X91036666Y-103760000D01*
X90603333Y-103326666D02*
X90636666Y-103393333D01*
X90670000Y-103426666D01*
X90736666Y-103460000D01*
X90936666Y-103460000D01*
X91003333Y-103426666D01*
X91036666Y-103393333D01*
X91070000Y-103326666D01*
X91070000Y-103226666D01*
X91036666Y-103160000D01*
X91003333Y-103126666D01*
X90936666Y-103093333D01*
X90736666Y-103093333D01*
X90670000Y-103126666D01*
X90636666Y-103160000D01*
X90603333Y-103226666D01*
X90603333Y-103326666D01*
X91070000Y-102493333D02*
X90603333Y-102493333D01*
X91070000Y-102793333D02*
X90703333Y-102793333D01*
X90636666Y-102760000D01*
X90603333Y-102693333D01*
X90603333Y-102593333D01*
X90636666Y-102526666D01*
X90670000Y-102493333D01*
X91070000Y-102160000D02*
X90603333Y-102160000D01*
X91003333Y-102160000D02*
X91036666Y-102126666D01*
X91070000Y-102060000D01*
X91070000Y-101960000D01*
X91036666Y-101893333D01*
X90970000Y-101860000D01*
X90603333Y-101860000D01*
X90603333Y-101226666D02*
X91303333Y-101226666D01*
X90636666Y-101226666D02*
X90603333Y-101293333D01*
X90603333Y-101426666D01*
X90636666Y-101493333D01*
X90670000Y-101526666D01*
X90736666Y-101560000D01*
X90936666Y-101560000D01*
X91003333Y-101526666D01*
X91036666Y-101493333D01*
X91070000Y-101426666D01*
X91070000Y-101293333D01*
X91036666Y-101226666D01*
X90870000Y-100893333D02*
X90870000Y-100360000D01*
X90603333Y-99926666D02*
X90636666Y-99993333D01*
X90703333Y-100026666D01*
X91303333Y-100026666D01*
X90636666Y-99393333D02*
X90603333Y-99460000D01*
X90603333Y-99593333D01*
X90636666Y-99660000D01*
X90703333Y-99693333D01*
X90970000Y-99693333D01*
X91036666Y-99660000D01*
X91070000Y-99593333D01*
X91070000Y-99460000D01*
X91036666Y-99393333D01*
X90970000Y-99360000D01*
X90903333Y-99360000D01*
X90836666Y-99693333D01*
X91070000Y-99060000D02*
X90603333Y-99060000D01*
X91003333Y-99060000D02*
X91036666Y-99026666D01*
X91070000Y-98960000D01*
X91070000Y-98860000D01*
X91036666Y-98793333D01*
X90970000Y-98760000D01*
X90603333Y-98760000D01*
X90636666Y-98460000D02*
X90603333Y-98393333D01*
X90603333Y-98260000D01*
X90636666Y-98193333D01*
X90703333Y-98160000D01*
X90736666Y-98160000D01*
X90803333Y-98193333D01*
X90836666Y-98260000D01*
X90836666Y-98360000D01*
X90870000Y-98426666D01*
X90936666Y-98460000D01*
X90970000Y-98460000D01*
X91036666Y-98426666D01*
X91070000Y-98360000D01*
X91070000Y-98260000D01*
X91036666Y-98193333D01*
X89153333Y-115326666D02*
X89620000Y-115326666D01*
X89486666Y-115326666D02*
X89553333Y-115293333D01*
X89586666Y-115260000D01*
X89620000Y-115193333D01*
X89620000Y-115126666D01*
X89186666Y-114626666D02*
X89153333Y-114693333D01*
X89153333Y-114826666D01*
X89186666Y-114893333D01*
X89253333Y-114926666D01*
X89520000Y-114926666D01*
X89586666Y-114893333D01*
X89620000Y-114826666D01*
X89620000Y-114693333D01*
X89586666Y-114626666D01*
X89520000Y-114593333D01*
X89453333Y-114593333D01*
X89386666Y-114926666D01*
X89620000Y-114360000D02*
X89153333Y-114193333D01*
X89620000Y-114026666D01*
X89853333Y-113093333D02*
X89853333Y-113026666D01*
X89820000Y-112960000D01*
X89786666Y-112926666D01*
X89720000Y-112893333D01*
X89586666Y-112860000D01*
X89420000Y-112860000D01*
X89286666Y-112893333D01*
X89220000Y-112926666D01*
X89186666Y-112960000D01*
X89153333Y-113026666D01*
X89153333Y-113093333D01*
X89186666Y-113160000D01*
X89220000Y-113193333D01*
X89286666Y-113226666D01*
X89420000Y-113260000D01*
X89586666Y-113260000D01*
X89720000Y-113226666D01*
X89786666Y-113193333D01*
X89820000Y-113160000D01*
X89853333Y-113093333D01*
X89220000Y-112560000D02*
X89186666Y-112526666D01*
X89153333Y-112560000D01*
X89186666Y-112593333D01*
X89220000Y-112560000D01*
X89153333Y-112560000D01*
X89153333Y-111860000D02*
X89153333Y-112260000D01*
X89153333Y-112060000D02*
X89853333Y-112060000D01*
X89753333Y-112126666D01*
X89686666Y-112193333D01*
X89653333Y-112260000D01*
%TO.C,G\u002A\u002A\u002A*%
G36*
X98422181Y-113760577D02*
G01*
X98446118Y-113806440D01*
X98458052Y-113897980D01*
X98466982Y-114036874D01*
X98699748Y-114036874D01*
X98759147Y-114037074D01*
X98852731Y-114039973D01*
X98904937Y-114048687D01*
X98927590Y-114066193D01*
X98932514Y-114095467D01*
X98932490Y-114098605D01*
X98927443Y-114124225D01*
X98906230Y-114140459D01*
X98858247Y-114149429D01*
X98772889Y-114153256D01*
X98639550Y-114154060D01*
X98346586Y-114154060D01*
X98346586Y-113945225D01*
X98348315Y-113837458D01*
X98355442Y-113776574D01*
X98370958Y-113751046D01*
X98397854Y-113749350D01*
X98422181Y-113760577D01*
G37*
G36*
X98786206Y-106516410D02*
G01*
X98809860Y-106588258D01*
X98812213Y-106641469D01*
X98796485Y-106675883D01*
X98748826Y-106683472D01*
X98700870Y-106679203D01*
X98659081Y-106663941D01*
X98644302Y-106644041D01*
X98642646Y-106609884D01*
X98658417Y-106542777D01*
X98660474Y-106535754D01*
X98695639Y-106485391D01*
X98742840Y-106480532D01*
X98786206Y-106516410D01*
G37*
G36*
X98889370Y-110668648D02*
G01*
X98912665Y-110680415D01*
X98925657Y-110715398D01*
X98931291Y-110785383D01*
X98932514Y-110902157D01*
X98932298Y-110963951D01*
X98929357Y-111057133D01*
X98920611Y-111109099D01*
X98903115Y-111131635D01*
X98873921Y-111136528D01*
X98858796Y-111135622D01*
X98824536Y-111112971D01*
X98815328Y-111048639D01*
X98815328Y-110960750D01*
X98580957Y-110960750D01*
X98519163Y-110960534D01*
X98425981Y-110957593D01*
X98374015Y-110948847D01*
X98351479Y-110931350D01*
X98346586Y-110902157D01*
X98347448Y-110886708D01*
X98359215Y-110863413D01*
X98394198Y-110850421D01*
X98464183Y-110844787D01*
X98580957Y-110843564D01*
X98815328Y-110843564D01*
X98815328Y-110755675D01*
X98815933Y-110732987D01*
X98831033Y-110681597D01*
X98873921Y-110667786D01*
X98889370Y-110668648D01*
G37*
G36*
X93553231Y-114066161D02*
G01*
X93426164Y-114065089D01*
X93345672Y-114060773D01*
X93301222Y-114051134D01*
X93282278Y-114034095D01*
X93278304Y-114007578D01*
X93281656Y-113981127D01*
X93310171Y-113955539D01*
X93380842Y-113948985D01*
X93384688Y-113948982D01*
X93451452Y-113943789D01*
X93478381Y-113917372D01*
X93481043Y-113883068D01*
X93571717Y-113883068D01*
X93573464Y-113909003D01*
X93596911Y-113941050D01*
X93661014Y-113948985D01*
X93718676Y-113944705D01*
X93742824Y-113919123D01*
X93741579Y-113854012D01*
X93730585Y-113807555D01*
X93692416Y-113755969D01*
X93642797Y-113743272D01*
X93597200Y-113777648D01*
X93582831Y-113812065D01*
X93571717Y-113883068D01*
X93481043Y-113883068D01*
X93483379Y-113852966D01*
X93483880Y-113832838D01*
X93510712Y-113722158D01*
X93574973Y-113651540D01*
X93671880Y-113626724D01*
X93677561Y-113626758D01*
X93755437Y-113639142D01*
X93806620Y-113680520D01*
X93837967Y-113760652D01*
X93856332Y-113889298D01*
X93872371Y-114066171D01*
X93575337Y-114066171D01*
X93553231Y-114066161D01*
G37*
G36*
X92223633Y-102376897D02*
G01*
X107604256Y-102376897D01*
X107604256Y-115472399D01*
X92223633Y-115472399D01*
X92223633Y-115325917D01*
X92370115Y-115325917D01*
X94772422Y-115325917D01*
X97438396Y-115325917D01*
X99840703Y-115325917D01*
X99840703Y-113685317D01*
X100895375Y-113685317D01*
X101188339Y-113685317D01*
X101204029Y-113685312D01*
X101332128Y-113684303D01*
X101413300Y-113680060D01*
X101458150Y-113670464D01*
X101477282Y-113653392D01*
X101481303Y-113626724D01*
X101480441Y-113611276D01*
X101468674Y-113587980D01*
X101433691Y-113574989D01*
X101363706Y-113569355D01*
X101246932Y-113568132D01*
X101012560Y-113568132D01*
X101012560Y-113421649D01*
X101012309Y-113387768D01*
X101006639Y-113315614D01*
X100989112Y-113282879D01*
X100953967Y-113275167D01*
X100949303Y-113275225D01*
X100920340Y-113282489D01*
X100904084Y-113310727D01*
X100896955Y-113372469D01*
X100895375Y-113480242D01*
X100895375Y-113685317D01*
X99840703Y-113685317D01*
X99840703Y-112996851D01*
X100895375Y-112996851D01*
X100895375Y-113216574D01*
X101483870Y-113216574D01*
X101475262Y-113004486D01*
X101470524Y-112917201D01*
X101460380Y-112838683D01*
X101443090Y-112797857D01*
X101415386Y-112782615D01*
X101399428Y-112781113D01*
X101377035Y-112795076D01*
X101366653Y-112842587D01*
X101364117Y-112936110D01*
X101363430Y-112995841D01*
X101356860Y-113062576D01*
X101339210Y-113092488D01*
X101305524Y-113099389D01*
X101290820Y-113098631D01*
X101262674Y-113083920D01*
X101249926Y-113039403D01*
X101246932Y-112950758D01*
X101246750Y-112921408D01*
X101241723Y-112846998D01*
X101226266Y-112814744D01*
X101195663Y-112811864D01*
X101171336Y-112823091D01*
X101147399Y-112868954D01*
X101135465Y-112960494D01*
X101135056Y-112966704D01*
X101125073Y-113049839D01*
X101105472Y-113089357D01*
X101069548Y-113099389D01*
X101050936Y-113097845D01*
X101026368Y-113080170D01*
X101015200Y-113031566D01*
X101012560Y-112938258D01*
X101011935Y-112881729D01*
X101005468Y-112814360D01*
X100987828Y-112784122D01*
X100953967Y-112777128D01*
X100943420Y-112777473D01*
X100917543Y-112786963D01*
X100903069Y-112818594D01*
X100896758Y-112884510D01*
X100895375Y-112996851D01*
X99840703Y-112996851D01*
X99840703Y-112540831D01*
X100895375Y-112540831D01*
X100895375Y-112689239D01*
X101489441Y-112689239D01*
X101472868Y-112506468D01*
X101446230Y-112364064D01*
X101391282Y-112264478D01*
X101303890Y-112208836D01*
X101179381Y-112192131D01*
X101081108Y-112202037D01*
X100993368Y-112244474D01*
X100929456Y-112328432D01*
X100918899Y-112355584D01*
X100902030Y-112440498D01*
X100895375Y-112540831D01*
X99840703Y-112540831D01*
X99840703Y-111956828D01*
X100817335Y-111956828D01*
X100817503Y-111992678D01*
X100819599Y-112065749D01*
X100823587Y-112092457D01*
X100828827Y-112066690D01*
X100833567Y-111956973D01*
X100828827Y-111846967D01*
X100826868Y-111831455D01*
X100821998Y-111824973D01*
X100818607Y-111868802D01*
X100817335Y-111956828D01*
X99840703Y-111956828D01*
X99840703Y-111473437D01*
X100895375Y-111473437D01*
X100895375Y-111693160D01*
X101483870Y-111693160D01*
X101475262Y-111481072D01*
X101470524Y-111393787D01*
X101460380Y-111315269D01*
X101443090Y-111274443D01*
X101415386Y-111259201D01*
X101399428Y-111257699D01*
X101377035Y-111271662D01*
X101366653Y-111319173D01*
X101364117Y-111412696D01*
X101363430Y-111472427D01*
X101356860Y-111539162D01*
X101339210Y-111569074D01*
X101305524Y-111575975D01*
X101290820Y-111575217D01*
X101262674Y-111560506D01*
X101249926Y-111515989D01*
X101246932Y-111427344D01*
X101246750Y-111397994D01*
X101241723Y-111323584D01*
X101226266Y-111291330D01*
X101195663Y-111288450D01*
X101188339Y-111291830D01*
X101171336Y-111299677D01*
X101147399Y-111345540D01*
X101135465Y-111437080D01*
X101135056Y-111443290D01*
X101125073Y-111526425D01*
X101105472Y-111565943D01*
X101069548Y-111575975D01*
X101050936Y-111574431D01*
X101026368Y-111556756D01*
X101015200Y-111508152D01*
X101012560Y-111414844D01*
X101011935Y-111358315D01*
X101005468Y-111290946D01*
X100987828Y-111260708D01*
X100953967Y-111253714D01*
X100943420Y-111254059D01*
X100917543Y-111263548D01*
X100903069Y-111295180D01*
X100896758Y-111361095D01*
X100895375Y-111473437D01*
X99840703Y-111473437D01*
X99840703Y-110665664D01*
X100895375Y-110665664D01*
X100895375Y-110738171D01*
X100897480Y-110759870D01*
X100920553Y-110805644D01*
X100977007Y-110856477D01*
X101076650Y-110922334D01*
X101257926Y-111033991D01*
X101076650Y-111042713D01*
X101001337Y-111047369D01*
X100933799Y-111057691D01*
X100902813Y-111076536D01*
X100895375Y-111108630D01*
X100895382Y-111110225D01*
X100900270Y-111135748D01*
X100921433Y-111152004D01*
X100969447Y-111161059D01*
X101054889Y-111164977D01*
X101188339Y-111165825D01*
X101200279Y-111165822D01*
X101329692Y-111164840D01*
X101411910Y-111160653D01*
X101457523Y-111151170D01*
X101477123Y-111134297D01*
X101481303Y-111107942D01*
X101471070Y-111076908D01*
X101411806Y-111014137D01*
X101298503Y-110933835D01*
X101115704Y-110817611D01*
X101291179Y-110808615D01*
X101361423Y-110804083D01*
X101428727Y-110793595D01*
X101459383Y-110774279D01*
X101466655Y-110741027D01*
X101462496Y-110714634D01*
X101442556Y-110696615D01*
X101396130Y-110685517D01*
X101312516Y-110678832D01*
X101181015Y-110674049D01*
X100895375Y-110665664D01*
X99840703Y-110665664D01*
X99840703Y-109027186D01*
X97438396Y-109027186D01*
X97438396Y-115325917D01*
X94772422Y-115325917D01*
X94772422Y-114447024D01*
X95797797Y-114447024D01*
X96090761Y-114447024D01*
X96106451Y-114447019D01*
X96234550Y-114446010D01*
X96315722Y-114441767D01*
X96360572Y-114432171D01*
X96379704Y-114415099D01*
X96383725Y-114388431D01*
X96382863Y-114372983D01*
X96371096Y-114349688D01*
X96336113Y-114336696D01*
X96266128Y-114331062D01*
X96149354Y-114329839D01*
X95914982Y-114329839D01*
X95914982Y-114183356D01*
X95914732Y-114149475D01*
X95909061Y-114077321D01*
X95891534Y-114044586D01*
X95856390Y-114036874D01*
X95851726Y-114036932D01*
X95822762Y-114044196D01*
X95806506Y-114072434D01*
X95799377Y-114134176D01*
X95797797Y-114241949D01*
X95797797Y-114447024D01*
X94772422Y-114447024D01*
X94772422Y-113758558D01*
X95797797Y-113758558D01*
X95797797Y-113978281D01*
X96386292Y-113978281D01*
X96377685Y-113766193D01*
X96372946Y-113678908D01*
X96362802Y-113600390D01*
X96345512Y-113559565D01*
X96317808Y-113544322D01*
X96301850Y-113542821D01*
X96279458Y-113556783D01*
X96269075Y-113604294D01*
X96266539Y-113697817D01*
X96265852Y-113757548D01*
X96259282Y-113824283D01*
X96241632Y-113854195D01*
X96207947Y-113861096D01*
X96193242Y-113860338D01*
X96165096Y-113845627D01*
X96152348Y-113801110D01*
X96149354Y-113712466D01*
X96149173Y-113683115D01*
X96144145Y-113608705D01*
X96128688Y-113576451D01*
X96098085Y-113573571D01*
X96073758Y-113584798D01*
X96049821Y-113630661D01*
X96037887Y-113722201D01*
X96037478Y-113728411D01*
X96027495Y-113811546D01*
X96007894Y-113851064D01*
X95971970Y-113861096D01*
X95953358Y-113859552D01*
X95928790Y-113841877D01*
X95917622Y-113793273D01*
X95914982Y-113699965D01*
X95914357Y-113643436D01*
X95907890Y-113576067D01*
X95890250Y-113545829D01*
X95856390Y-113538835D01*
X95845842Y-113539180D01*
X95819965Y-113548670D01*
X95805491Y-113580301D01*
X95799181Y-113646217D01*
X95797797Y-113758558D01*
X94772422Y-113758558D01*
X94772422Y-113302538D01*
X95797797Y-113302538D01*
X95797797Y-113450946D01*
X96391863Y-113450946D01*
X96375290Y-113268175D01*
X96348652Y-113125771D01*
X96293704Y-113026185D01*
X96206312Y-112970543D01*
X96090761Y-112955040D01*
X96081803Y-112953838D01*
X95983530Y-112963744D01*
X95895790Y-113006181D01*
X95831878Y-113090139D01*
X95821321Y-113117291D01*
X95804452Y-113202205D01*
X95797797Y-113302538D01*
X94772422Y-113302538D01*
X94772422Y-112718535D01*
X95719757Y-112718535D01*
X95719925Y-112754385D01*
X95722021Y-112827456D01*
X95726009Y-112854164D01*
X95731249Y-112828397D01*
X95735989Y-112718680D01*
X95731249Y-112608674D01*
X95729290Y-112593162D01*
X95724420Y-112586680D01*
X95721029Y-112630509D01*
X95719757Y-112718535D01*
X94772422Y-112718535D01*
X94772422Y-112178526D01*
X95797797Y-112178526D01*
X95797797Y-112454867D01*
X96090761Y-112454867D01*
X96106451Y-112454863D01*
X96234550Y-112453853D01*
X96315722Y-112449611D01*
X96360572Y-112440014D01*
X96379704Y-112422942D01*
X96383725Y-112396275D01*
X96382863Y-112380826D01*
X96371096Y-112357531D01*
X96336113Y-112344539D01*
X96266128Y-112338905D01*
X96149354Y-112337682D01*
X95914982Y-112337682D01*
X95914982Y-112193348D01*
X95911271Y-112108701D01*
X95895745Y-112058173D01*
X95863714Y-112038998D01*
X95861990Y-112030263D01*
X95901784Y-112004906D01*
X95981022Y-111967941D01*
X96090761Y-111923901D01*
X96180175Y-111889484D01*
X96277284Y-111848207D01*
X96334709Y-111815503D01*
X96362092Y-111785416D01*
X96369077Y-111751991D01*
X96368359Y-111739512D01*
X96354484Y-111706171D01*
X96325132Y-111682360D01*
X96315191Y-111674296D01*
X96240406Y-111637273D01*
X96120057Y-111588489D01*
X96066375Y-111567931D01*
X95958837Y-111528540D01*
X95876680Y-111500877D01*
X95834417Y-111489951D01*
X95803936Y-111505440D01*
X95797910Y-111548511D01*
X95816638Y-111596426D01*
X95856390Y-111626079D01*
X95879693Y-111635321D01*
X95907446Y-111674009D01*
X95914982Y-111753196D01*
X95913616Y-111793828D01*
X95897278Y-111855123D01*
X95856390Y-111883587D01*
X95833982Y-111893627D01*
X95814673Y-111917833D01*
X95803752Y-111965605D01*
X95798899Y-112048613D01*
X95797797Y-112178526D01*
X94772422Y-112178526D01*
X94772422Y-111312307D01*
X95797797Y-111312307D01*
X95798659Y-111327755D01*
X95810426Y-111351051D01*
X95845409Y-111364042D01*
X95915394Y-111369676D01*
X96032168Y-111370900D01*
X96266539Y-111370900D01*
X96266539Y-111458789D01*
X96267144Y-111481477D01*
X96282244Y-111532867D01*
X96325132Y-111546678D01*
X96340581Y-111545816D01*
X96363876Y-111534049D01*
X96376868Y-111499066D01*
X96382502Y-111429081D01*
X96383725Y-111312307D01*
X96383510Y-111250513D01*
X96380568Y-111157331D01*
X96371822Y-111105365D01*
X96354326Y-111082829D01*
X96325132Y-111077935D01*
X96310007Y-111078842D01*
X96275747Y-111101493D01*
X96266539Y-111165825D01*
X96266539Y-111253714D01*
X96032168Y-111253714D01*
X95970374Y-111253930D01*
X95877192Y-111256871D01*
X95825226Y-111265617D01*
X95802690Y-111283113D01*
X95797797Y-111312307D01*
X94772422Y-111312307D01*
X94772422Y-110737657D01*
X95795568Y-110737657D01*
X95814238Y-110854677D01*
X95869706Y-110947433D01*
X95959203Y-111004715D01*
X96076148Y-111024672D01*
X96195267Y-111000805D01*
X96298089Y-110933707D01*
X96315152Y-110915431D01*
X96375320Y-110809889D01*
X96382565Y-110701645D01*
X96338456Y-110602701D01*
X96244567Y-110525058D01*
X96212237Y-110509345D01*
X96184218Y-110511923D01*
X96178650Y-110561083D01*
X96189037Y-110610046D01*
X96224466Y-110649802D01*
X96255882Y-110683002D01*
X96261087Y-110762269D01*
X96259659Y-110774887D01*
X96234825Y-110845767D01*
X96175440Y-110883864D01*
X96168592Y-110886155D01*
X96090761Y-110894160D01*
X96061628Y-110897157D01*
X95968777Y-110864909D01*
X95907657Y-110795241D01*
X95889903Y-110742917D01*
X95902922Y-110701814D01*
X95956826Y-110652419D01*
X96012975Y-110593603D01*
X96022275Y-110537779D01*
X96007668Y-110510880D01*
X95978700Y-110506907D01*
X95919059Y-110533844D01*
X95918556Y-110534104D01*
X95853576Y-110578947D01*
X95815995Y-110625153D01*
X95795568Y-110737657D01*
X94772422Y-110737657D01*
X94772422Y-109903957D01*
X95797797Y-109903957D01*
X95797797Y-109978259D01*
X95797849Y-109985601D01*
X95805982Y-110029779D01*
X95839524Y-110048610D01*
X95914982Y-110052561D01*
X96032168Y-110052561D01*
X96032168Y-110286932D01*
X95914982Y-110286932D01*
X95847343Y-110290249D01*
X95807624Y-110307191D01*
X95797797Y-110345525D01*
X95797821Y-110348663D01*
X95802868Y-110374283D01*
X95824081Y-110390517D01*
X95872063Y-110399487D01*
X95957422Y-110403314D01*
X96090761Y-110404118D01*
X96106451Y-110404113D01*
X96234550Y-110403103D01*
X96315722Y-110398861D01*
X96360572Y-110389264D01*
X96379704Y-110372193D01*
X96383725Y-110345525D01*
X96377090Y-110311705D01*
X96343207Y-110291846D01*
X96266539Y-110286932D01*
X96149354Y-110286932D01*
X96149354Y-110052561D01*
X96268577Y-110052561D01*
X96281527Y-110052521D01*
X96350595Y-110047745D01*
X96377965Y-110028746D01*
X96378439Y-109986644D01*
X96377808Y-109982391D01*
X96369114Y-109953404D01*
X96346494Y-109934717D01*
X96298785Y-109923520D01*
X96214821Y-109916999D01*
X96083437Y-109912342D01*
X95797797Y-109903957D01*
X94772422Y-109903957D01*
X94772422Y-109027186D01*
X92370115Y-109027186D01*
X92370115Y-115325917D01*
X92223633Y-115325917D01*
X92223633Y-106742065D01*
X93278304Y-106742065D01*
X93278349Y-106746263D01*
X93283731Y-106771402D01*
X93305522Y-106787327D01*
X93354266Y-106796122D01*
X93440507Y-106799871D01*
X93574790Y-106800657D01*
X93871275Y-106800657D01*
X93858496Y-106623992D01*
X93847607Y-106531715D01*
X93814728Y-106428658D01*
X93758787Y-106371514D01*
X93675451Y-106353887D01*
X93662896Y-106354223D01*
X93567721Y-106384814D01*
X93505604Y-106459588D01*
X93483379Y-106570827D01*
X93483241Y-106597441D01*
X93476304Y-106656712D01*
X93447394Y-106679651D01*
X93380842Y-106683472D01*
X93334552Y-106685387D01*
X93289774Y-106701681D01*
X93278304Y-106742065D01*
X92223633Y-106742065D01*
X92223633Y-106124914D01*
X93278304Y-106124914D01*
X93278304Y-106273322D01*
X93872371Y-106273322D01*
X93855797Y-106090551D01*
X93829159Y-105948147D01*
X93774212Y-105848561D01*
X93686820Y-105792919D01*
X93562311Y-105776214D01*
X93464038Y-105786120D01*
X93432798Y-105801230D01*
X93376298Y-105828557D01*
X93312386Y-105912515D01*
X93301829Y-105939667D01*
X93284959Y-106024581D01*
X93278304Y-106124914D01*
X92223633Y-106124914D01*
X92223633Y-105380781D01*
X93277774Y-105380781D01*
X93325754Y-105425001D01*
X93432110Y-105468917D01*
X93526147Y-105501548D01*
X93594629Y-105533066D01*
X93606242Y-105554357D01*
X93561256Y-105566409D01*
X93459942Y-105570208D01*
X93371573Y-105571544D01*
X93310916Y-105579016D01*
X93284247Y-105597003D01*
X93278304Y-105629861D01*
X93278331Y-105633647D01*
X93282960Y-105659619D01*
X93303071Y-105675421D01*
X93349429Y-105682985D01*
X93432798Y-105684244D01*
X93563944Y-105681130D01*
X93849584Y-105672745D01*
X93849584Y-105585773D01*
X93849601Y-105576723D01*
X93847872Y-105541995D01*
X93836473Y-105515334D01*
X93806330Y-105491114D01*
X93748365Y-105463703D01*
X93653506Y-105427473D01*
X93512676Y-105376796D01*
X93511360Y-105376266D01*
X93516341Y-105359402D01*
X93568500Y-105331466D01*
X93659158Y-105297175D01*
X93683894Y-105288828D01*
X93774884Y-105255273D01*
X93824607Y-105226738D01*
X93845396Y-105193393D01*
X93849584Y-105145410D01*
X93849584Y-105057520D01*
X93707725Y-105053356D01*
X93278304Y-105040750D01*
X93278304Y-105115052D01*
X93281697Y-105155193D01*
X93301538Y-105178600D01*
X93351876Y-105188629D01*
X93446759Y-105191667D01*
X93615213Y-105193980D01*
X93446759Y-105252701D01*
X93357113Y-105288954D01*
X93288214Y-105335639D01*
X93277774Y-105380781D01*
X92223633Y-105380781D01*
X92223633Y-104749908D01*
X93278304Y-104749908D01*
X93281302Y-104775186D01*
X93302136Y-104796722D01*
X93354562Y-104806313D01*
X93452045Y-104808501D01*
X93530111Y-104809635D01*
X93593602Y-104817237D01*
X93623805Y-104836395D01*
X93635148Y-104872123D01*
X93637991Y-104887229D01*
X93666946Y-104939228D01*
X93707725Y-104939829D01*
X93745060Y-104886969D01*
X93770513Y-104835096D01*
X93803833Y-104794969D01*
X93815905Y-104784180D01*
X93834936Y-104733531D01*
X93834738Y-104730158D01*
X93819946Y-104711016D01*
X93774955Y-104699117D01*
X93690327Y-104693027D01*
X93556620Y-104691315D01*
X93432497Y-104692096D01*
X93348735Y-104696058D01*
X93302361Y-104705488D01*
X93282507Y-104722675D01*
X93278304Y-104749908D01*
X92223633Y-104749908D01*
X92223633Y-102523380D01*
X94918904Y-102523380D01*
X94918904Y-108880704D01*
X97291914Y-108880704D01*
X97291914Y-106742065D01*
X98346586Y-106742065D01*
X98346630Y-106746263D01*
X98352013Y-106771402D01*
X98373804Y-106787327D01*
X98422547Y-106796122D01*
X98508788Y-106799871D01*
X98643071Y-106800657D01*
X98939556Y-106800657D01*
X98926778Y-106623992D01*
X98915888Y-106531715D01*
X98883009Y-106428658D01*
X98827068Y-106371514D01*
X98743732Y-106353887D01*
X98731178Y-106354223D01*
X98636002Y-106384814D01*
X98573885Y-106459588D01*
X98551661Y-106570827D01*
X98551522Y-106597441D01*
X98544586Y-106656712D01*
X98515676Y-106679651D01*
X98449123Y-106683472D01*
X98402833Y-106685387D01*
X98358056Y-106701681D01*
X98346586Y-106742065D01*
X97291914Y-106742065D01*
X97291914Y-106124914D01*
X98346586Y-106124914D01*
X98346586Y-106273322D01*
X98940652Y-106273322D01*
X98924079Y-106090551D01*
X98897441Y-105948147D01*
X98842493Y-105848561D01*
X98755101Y-105792919D01*
X98630592Y-105776214D01*
X98532319Y-105786120D01*
X98501080Y-105801229D01*
X98444579Y-105828557D01*
X98380667Y-105912515D01*
X98370110Y-105939667D01*
X98353241Y-106024581D01*
X98346586Y-106124914D01*
X97291914Y-106124914D01*
X97291914Y-105380781D01*
X98346056Y-105380781D01*
X98394035Y-105425001D01*
X98500392Y-105468917D01*
X98594429Y-105501548D01*
X98662911Y-105533066D01*
X98674523Y-105554357D01*
X98629537Y-105566409D01*
X98528223Y-105570208D01*
X98439854Y-105571544D01*
X98379197Y-105579016D01*
X98352528Y-105597003D01*
X98346586Y-105629861D01*
X98346612Y-105633647D01*
X98351242Y-105659619D01*
X98371353Y-105675421D01*
X98417710Y-105682985D01*
X98501080Y-105684244D01*
X98632226Y-105681130D01*
X98917866Y-105672745D01*
X98917866Y-105585773D01*
X98917882Y-105576723D01*
X98916154Y-105541995D01*
X98904755Y-105515334D01*
X98874611Y-105491114D01*
X98816647Y-105463703D01*
X98721787Y-105427473D01*
X98580957Y-105376796D01*
X98579641Y-105376266D01*
X98584622Y-105359402D01*
X98636781Y-105331466D01*
X98727439Y-105297175D01*
X98752175Y-105288828D01*
X98843165Y-105255273D01*
X98892888Y-105226738D01*
X98913677Y-105193393D01*
X98917866Y-105145410D01*
X98917866Y-105057520D01*
X98482719Y-105044746D01*
X98346586Y-105040750D01*
X98346586Y-105115052D01*
X98349978Y-105155193D01*
X98369819Y-105178600D01*
X98420158Y-105188629D01*
X98515040Y-105191667D01*
X98683494Y-105193980D01*
X98515040Y-105252701D01*
X98425395Y-105288954D01*
X98356495Y-105335639D01*
X98346056Y-105380781D01*
X97291914Y-105380781D01*
X97291914Y-104780784D01*
X98345858Y-104780784D01*
X98363205Y-104872904D01*
X98411697Y-104938673D01*
X98482719Y-104977015D01*
X98533687Y-104975752D01*
X98551661Y-104929103D01*
X98540577Y-104893827D01*
X98490750Y-104857999D01*
X98448363Y-104833434D01*
X98439481Y-104774017D01*
X98457783Y-104728609D01*
X98505051Y-104696783D01*
X98558146Y-104702096D01*
X98595063Y-104748200D01*
X98596280Y-104751875D01*
X98632037Y-104800989D01*
X98675320Y-104799228D01*
X98707438Y-104746821D01*
X98725606Y-104711534D01*
X98762124Y-104697980D01*
X98765829Y-104699346D01*
X98803867Y-104740052D01*
X98807561Y-104798151D01*
X98774394Y-104843728D01*
X98765345Y-104849348D01*
X98731200Y-104893514D01*
X98737425Y-104935986D01*
X98782445Y-104954983D01*
X98784691Y-104954961D01*
X98852806Y-104929075D01*
X98896987Y-104866205D01*
X98913602Y-104783868D01*
X98899021Y-104699584D01*
X98849615Y-104630871D01*
X98815939Y-104610350D01*
X98748939Y-104595032D01*
X98692443Y-104606567D01*
X98667955Y-104643463D01*
X98660913Y-104652928D01*
X98637203Y-104625398D01*
X98612529Y-104599155D01*
X98542870Y-104576260D01*
X98462275Y-104585854D01*
X98395071Y-104627705D01*
X98360944Y-104686377D01*
X98345858Y-104780784D01*
X97291914Y-104780784D01*
X97291914Y-102523380D01*
X99987185Y-102523380D01*
X99987185Y-108880704D01*
X102389492Y-108880704D01*
X102389492Y-102523380D01*
X102535974Y-102523380D01*
X102535974Y-115325917D01*
X104908985Y-115325917D01*
X104908985Y-109526548D01*
X105963626Y-109526548D01*
X105986832Y-109612422D01*
X106037781Y-109676097D01*
X106112231Y-109701004D01*
X106120436Y-109700785D01*
X106162901Y-109682811D01*
X106156833Y-109641130D01*
X106102814Y-109583025D01*
X106086132Y-109568619D01*
X106055084Y-109523838D01*
X106068286Y-109477535D01*
X106113396Y-109425742D01*
X106160449Y-109423269D01*
X106202309Y-109478979D01*
X106203572Y-109481724D01*
X106243826Y-109542094D01*
X106279807Y-109547088D01*
X106306724Y-109495929D01*
X106325079Y-109460945D01*
X106369273Y-109437632D01*
X106412760Y-109449656D01*
X106432399Y-109496848D01*
X106424643Y-109533483D01*
X106388454Y-109573223D01*
X106367445Y-109587683D01*
X106346674Y-109633050D01*
X106351851Y-109679618D01*
X106383914Y-109701004D01*
X106444806Y-109677927D01*
X106494485Y-109614504D01*
X106522924Y-109529045D01*
X106524175Y-109439959D01*
X106492287Y-109365656D01*
X106437361Y-109330207D01*
X106360242Y-109322556D01*
X106296394Y-109350688D01*
X106270617Y-109363716D01*
X106228354Y-109336040D01*
X106178452Y-109299745D01*
X106101360Y-109299039D01*
X106099790Y-109300039D01*
X106022249Y-109349446D01*
X106017402Y-109354480D01*
X105972402Y-109435044D01*
X105963626Y-109526548D01*
X104908985Y-109526548D01*
X104908985Y-109173668D01*
X105963656Y-109173668D01*
X105973285Y-109211545D01*
X106022249Y-109232261D01*
X106060126Y-109222631D01*
X106080842Y-109173668D01*
X106071212Y-109135791D01*
X106022249Y-109115075D01*
X105984372Y-109124705D01*
X105963656Y-109173668D01*
X104908985Y-109173668D01*
X104908985Y-108852987D01*
X105962929Y-108852987D01*
X105980275Y-108945107D01*
X106028767Y-109010876D01*
X106099790Y-109049218D01*
X106150757Y-109047955D01*
X106168731Y-109001306D01*
X106157647Y-108966030D01*
X106107820Y-108930202D01*
X106065434Y-108905637D01*
X106056552Y-108846220D01*
X106074853Y-108800812D01*
X106122121Y-108768986D01*
X106175217Y-108774299D01*
X106212133Y-108820403D01*
X106213350Y-108824078D01*
X106249107Y-108873192D01*
X106292390Y-108871431D01*
X106324509Y-108819024D01*
X106342676Y-108783737D01*
X106379194Y-108770183D01*
X106382899Y-108771549D01*
X106420937Y-108812255D01*
X106424632Y-108870354D01*
X106391464Y-108915931D01*
X106382416Y-108921551D01*
X106348271Y-108965717D01*
X106354496Y-109008189D01*
X106399515Y-109027186D01*
X106403886Y-109027105D01*
X106472187Y-109000237D01*
X106515491Y-108936933D01*
X106530504Y-108854320D01*
X106529722Y-108850319D01*
X106513932Y-108769524D01*
X106462484Y-108699673D01*
X106425312Y-108672217D01*
X106381610Y-108661661D01*
X106328479Y-108688489D01*
X106298891Y-108706801D01*
X106264241Y-108716100D01*
X106245603Y-108689175D01*
X106213320Y-108658694D01*
X106147144Y-108647639D01*
X106072330Y-108661733D01*
X106012141Y-108699908D01*
X105978015Y-108758580D01*
X105962929Y-108852987D01*
X104908985Y-108852987D01*
X104908985Y-108363370D01*
X105968954Y-108363370D01*
X105969308Y-108398236D01*
X105986003Y-108425724D01*
X106028932Y-108452061D01*
X106107987Y-108483470D01*
X106233061Y-108526178D01*
X106306940Y-108550499D01*
X106414562Y-108584754D01*
X106493246Y-108608288D01*
X106529722Y-108617036D01*
X106542609Y-108602740D01*
X106544298Y-108552199D01*
X106542605Y-108543230D01*
X106519395Y-108503662D01*
X106463015Y-108470078D01*
X106361167Y-108434582D01*
X106279571Y-108408909D01*
X106208005Y-108384346D01*
X106176193Y-108370596D01*
X106175912Y-108370145D01*
X106198950Y-108355208D01*
X106263798Y-108328470D01*
X106357286Y-108295398D01*
X106393665Y-108282983D01*
X106486913Y-108245249D01*
X106535573Y-108211392D01*
X106549584Y-108175201D01*
X106549129Y-108161686D01*
X106540032Y-108134143D01*
X106512266Y-108123653D01*
X106456734Y-108130970D01*
X106364343Y-108156848D01*
X106225999Y-108202041D01*
X106163860Y-108223208D01*
X106066143Y-108260064D01*
X106008520Y-108290638D01*
X105979932Y-108321747D01*
X105969321Y-108360203D01*
X105968954Y-108363370D01*
X104908985Y-108363370D01*
X104908985Y-102523380D01*
X102535974Y-102523380D01*
X102389492Y-102523380D01*
X99987185Y-102523380D01*
X97291914Y-102523380D01*
X94918904Y-102523380D01*
X92223633Y-102523380D01*
X92223633Y-102376897D01*
G37*
G36*
X100976518Y-106588739D02*
G01*
X100996448Y-106639113D01*
X101006767Y-106735015D01*
X101008473Y-106761777D01*
X101018504Y-106841251D01*
X101037478Y-106878984D01*
X101071079Y-106888547D01*
X101071485Y-106888546D01*
X101106464Y-106877638D01*
X101125646Y-106835966D01*
X101135465Y-106749652D01*
X101142096Y-106684443D01*
X101161236Y-106623948D01*
X101195663Y-106601022D01*
X101205799Y-106599622D01*
X101231795Y-106609260D01*
X101243934Y-106651765D01*
X101246932Y-106739917D01*
X101247230Y-106777217D01*
X101253030Y-106848614D01*
X101270579Y-106880951D01*
X101305524Y-106888547D01*
X101326959Y-106886631D01*
X101350907Y-106868322D01*
X101361641Y-106819139D01*
X101364117Y-106725268D01*
X101364602Y-106674538D01*
X101370328Y-106604316D01*
X101385868Y-106574216D01*
X101415386Y-106571773D01*
X101436633Y-106580774D01*
X101456467Y-106613340D01*
X101468254Y-106680260D01*
X101475262Y-106793644D01*
X101483870Y-107005732D01*
X100895375Y-107005732D01*
X100895375Y-106783861D01*
X100895410Y-106759930D01*
X100897564Y-106656117D01*
X100905011Y-106597637D01*
X100920466Y-106573255D01*
X100946643Y-106571736D01*
X100976518Y-106588739D01*
G37*
G36*
X93667442Y-112313757D02*
G01*
X93770742Y-112321927D01*
X93831571Y-112341499D01*
X93858342Y-112375394D01*
X93859472Y-112426537D01*
X93854636Y-112446247D01*
X93826737Y-112483939D01*
X93765550Y-112518896D01*
X93659158Y-112558999D01*
X93586486Y-112584732D01*
X93523597Y-112612084D01*
X93506075Y-112631236D01*
X93527324Y-112646570D01*
X93548642Y-112654804D01*
X93625855Y-112684506D01*
X93717751Y-112719753D01*
X93736772Y-112727166D01*
X93809077Y-112762058D01*
X93841866Y-112799507D01*
X93849584Y-112854252D01*
X93849584Y-112938258D01*
X93563944Y-112946643D01*
X93552194Y-112946986D01*
X93424938Y-112949798D01*
X93344666Y-112948055D01*
X93300635Y-112939878D01*
X93282096Y-112923391D01*
X93278304Y-112896713D01*
X93284038Y-112866512D01*
X93310488Y-112847114D01*
X93370286Y-112836280D01*
X93476055Y-112829735D01*
X93673806Y-112821073D01*
X93476055Y-112752767D01*
X93371927Y-112712647D01*
X93300871Y-112672174D01*
X93278304Y-112635320D01*
X93293528Y-112605183D01*
X93357832Y-112562824D01*
X93476055Y-112513198D01*
X93673806Y-112440219D01*
X93476055Y-112431557D01*
X93391602Y-112426676D01*
X93320545Y-112416625D01*
X93286836Y-112399119D01*
X93278304Y-112370393D01*
X93279478Y-112357305D01*
X93294021Y-112336424D01*
X93334039Y-112323820D01*
X93410569Y-112317051D01*
X93534648Y-112313676D01*
X93667442Y-112313757D01*
G37*
G36*
X103737128Y-109408039D02*
G01*
X103733810Y-109475679D01*
X103716868Y-109515398D01*
X103678535Y-109525225D01*
X103639420Y-109514781D01*
X103619942Y-109464191D01*
X103619910Y-109461338D01*
X103603650Y-109419617D01*
X103566408Y-109424048D01*
X103521082Y-109473425D01*
X103507129Y-109511915D01*
X103523970Y-109592427D01*
X103539477Y-109619249D01*
X103606456Y-109672642D01*
X103691350Y-109689153D01*
X103776676Y-109671260D01*
X103844952Y-109621440D01*
X103878696Y-109542170D01*
X103876837Y-109482660D01*
X103842075Y-109431069D01*
X103819573Y-109410519D01*
X103798442Y-109360610D01*
X103799771Y-109312436D01*
X103826349Y-109290854D01*
X103878062Y-109314152D01*
X103935480Y-109372125D01*
X103981775Y-109444426D01*
X104000796Y-109510700D01*
X103996974Y-109558717D01*
X103955504Y-109667306D01*
X103878669Y-109748949D01*
X103779275Y-109798816D01*
X103670129Y-109812075D01*
X103564041Y-109783897D01*
X103473817Y-109709452D01*
X103447037Y-109665597D01*
X103419420Y-109572205D01*
X103419776Y-109480362D01*
X103450023Y-109413899D01*
X103470405Y-109387390D01*
X103450023Y-109378743D01*
X103433771Y-109373733D01*
X103414867Y-109334798D01*
X103428798Y-109308642D01*
X103478826Y-109294799D01*
X103575997Y-109290854D01*
X103737128Y-109290854D01*
X103737128Y-109408039D01*
G37*
G36*
X98346586Y-113012878D02*
G01*
X98347343Y-112973946D01*
X98352794Y-112939289D01*
X98463771Y-112939289D01*
X98463771Y-113040796D01*
X98639550Y-113040796D01*
X98662239Y-113040782D01*
X98749926Y-113038708D01*
X98795465Y-113028492D01*
X98812664Y-113003587D01*
X98815328Y-112957447D01*
X98814693Y-112941246D01*
X98783231Y-112852486D01*
X98714405Y-112795873D01*
X98622159Y-112778498D01*
X98520438Y-112807455D01*
X98479158Y-112850916D01*
X98463771Y-112939289D01*
X98352794Y-112939289D01*
X98369873Y-112830715D01*
X98426217Y-112733239D01*
X98519774Y-112677616D01*
X98653943Y-112659942D01*
X98740716Y-112671003D01*
X98833302Y-112724844D01*
X98893774Y-112825489D01*
X98924079Y-112975211D01*
X98940652Y-113157982D01*
X98346586Y-113157982D01*
X98346586Y-113012878D01*
G37*
G36*
X103414867Y-108442636D02*
G01*
X103415624Y-108403704D01*
X103421076Y-108369047D01*
X103532053Y-108369047D01*
X103532053Y-108470554D01*
X103707831Y-108470554D01*
X103730520Y-108470540D01*
X103818207Y-108468466D01*
X103863747Y-108458250D01*
X103880945Y-108433345D01*
X103883610Y-108387205D01*
X103882974Y-108371004D01*
X103851513Y-108282244D01*
X103782686Y-108225631D01*
X103690440Y-108208256D01*
X103588720Y-108237213D01*
X103547440Y-108280674D01*
X103532053Y-108369047D01*
X103421076Y-108369047D01*
X103438155Y-108260472D01*
X103494499Y-108162997D01*
X103588056Y-108107374D01*
X103722224Y-108089700D01*
X103808997Y-108100761D01*
X103901584Y-108154602D01*
X103962056Y-108255247D01*
X103992360Y-108404969D01*
X104008933Y-108587739D01*
X103414867Y-108587739D01*
X103414867Y-108442636D01*
G37*
G36*
X98280077Y-112316363D02*
G01*
X98280472Y-112320278D01*
X98284759Y-112424558D01*
X98279840Y-112521438D01*
X98278490Y-112530945D01*
X98273234Y-112538752D01*
X98269600Y-112496445D01*
X98268310Y-112410923D01*
X98268432Y-112385893D01*
X98270524Y-112313741D01*
X98274645Y-112288641D01*
X98280077Y-112316363D01*
G37*
G36*
X100828866Y-105636778D02*
G01*
X100829261Y-105640693D01*
X100833548Y-105744973D01*
X100828629Y-105841853D01*
X100827279Y-105851360D01*
X100822023Y-105859167D01*
X100818389Y-105816860D01*
X100817099Y-105731338D01*
X100817221Y-105706308D01*
X100819312Y-105634156D01*
X100823433Y-105609056D01*
X100828866Y-105636778D01*
G37*
G36*
X98346586Y-112016800D02*
G01*
X98347343Y-111977868D01*
X98352794Y-111943211D01*
X98463771Y-111943211D01*
X98463771Y-112044717D01*
X98639550Y-112044717D01*
X98662239Y-112044704D01*
X98749926Y-112042630D01*
X98795465Y-112032414D01*
X98812664Y-112007509D01*
X98815328Y-111961369D01*
X98814693Y-111945168D01*
X98783231Y-111856408D01*
X98714405Y-111799794D01*
X98622159Y-111782420D01*
X98520438Y-111811377D01*
X98479158Y-111854838D01*
X98463771Y-111943211D01*
X98352794Y-111943211D01*
X98369873Y-111834636D01*
X98426217Y-111737160D01*
X98519774Y-111681538D01*
X98653943Y-111663864D01*
X98740716Y-111674925D01*
X98833302Y-111728766D01*
X98893774Y-111829411D01*
X98924079Y-111979132D01*
X98940652Y-112161903D01*
X98346586Y-112161903D01*
X98346586Y-112016800D01*
G37*
G36*
X93278304Y-113393731D02*
G01*
X93279061Y-113354800D01*
X93284513Y-113320143D01*
X93395490Y-113320143D01*
X93395490Y-113421649D01*
X93571268Y-113421649D01*
X93593958Y-113421636D01*
X93681645Y-113419562D01*
X93727184Y-113409346D01*
X93744382Y-113384441D01*
X93747047Y-113338301D01*
X93746412Y-113322100D01*
X93714950Y-113233340D01*
X93646123Y-113176726D01*
X93553878Y-113159352D01*
X93452157Y-113188309D01*
X93410877Y-113231770D01*
X93395490Y-113320143D01*
X93284513Y-113320143D01*
X93301592Y-113211568D01*
X93357936Y-113114092D01*
X93451493Y-113058469D01*
X93585661Y-113040796D01*
X93672434Y-113051857D01*
X93765021Y-113105698D01*
X93825493Y-113206343D01*
X93855797Y-113356064D01*
X93872371Y-113538835D01*
X93278304Y-113538835D01*
X93278304Y-113393731D01*
G37*
G36*
X93340180Y-110814298D02*
G01*
X93375380Y-110824415D01*
X93391580Y-110862955D01*
X93395490Y-110944869D01*
X93395490Y-111075471D01*
X93622537Y-111084027D01*
X93665133Y-111085745D01*
X93763675Y-111092143D01*
X93819333Y-111102835D01*
X93844004Y-111121340D01*
X93849584Y-111151177D01*
X93845426Y-111177569D01*
X93825485Y-111195588D01*
X93779059Y-111206686D01*
X93695446Y-111213372D01*
X93563944Y-111218154D01*
X93278304Y-111226539D01*
X93278304Y-111020403D01*
X93278324Y-111002360D01*
X93280434Y-110901320D01*
X93288531Y-110844625D01*
X93306168Y-110819774D01*
X93336897Y-110814268D01*
X93340180Y-110814298D01*
G37*
G36*
X96070808Y-111700082D02*
G01*
X96140122Y-111725683D01*
X96189219Y-111746925D01*
X96199759Y-111763578D01*
X96164002Y-111782217D01*
X96124949Y-111795994D01*
X96068789Y-111808287D01*
X96047351Y-111798328D01*
X96032168Y-111751753D01*
X96032405Y-111728929D01*
X96040167Y-111699893D01*
X96070808Y-111700082D01*
G37*
G36*
X93211795Y-111964806D02*
G01*
X93212191Y-111968721D01*
X93216478Y-112073001D01*
X93211559Y-112169881D01*
X93210209Y-112179388D01*
X93204952Y-112187195D01*
X93201319Y-112144888D01*
X93200028Y-112059366D01*
X93200150Y-112034336D01*
X93202242Y-111962184D01*
X93206363Y-111937084D01*
X93211795Y-111964806D01*
G37*
G36*
X93717924Y-106516410D02*
G01*
X93741579Y-106588258D01*
X93743931Y-106641469D01*
X93728203Y-106675883D01*
X93680545Y-106683472D01*
X93632589Y-106679203D01*
X93590799Y-106663941D01*
X93576020Y-106644041D01*
X93574364Y-106609884D01*
X93590135Y-106542777D01*
X93592193Y-106535754D01*
X93627357Y-106485391D01*
X93674559Y-106480532D01*
X93717924Y-106516410D01*
G37*
G36*
X98427729Y-113268324D02*
G01*
X98447659Y-113318697D01*
X98457978Y-113414600D01*
X98459685Y-113441362D01*
X98469715Y-113520835D01*
X98488689Y-113558569D01*
X98522290Y-113568132D01*
X98522696Y-113568131D01*
X98557675Y-113557223D01*
X98576857Y-113515551D01*
X98586676Y-113429237D01*
X98593307Y-113364027D01*
X98612447Y-113303533D01*
X98646874Y-113280607D01*
X98657010Y-113279207D01*
X98683006Y-113288845D01*
X98695145Y-113331350D01*
X98698143Y-113419501D01*
X98698441Y-113456802D01*
X98704241Y-113528199D01*
X98721790Y-113560535D01*
X98756736Y-113568132D01*
X98778170Y-113566216D01*
X98802118Y-113547907D01*
X98812852Y-113498724D01*
X98815328Y-113404853D01*
X98815813Y-113354123D01*
X98821539Y-113283901D01*
X98837079Y-113253801D01*
X98866597Y-113251358D01*
X98887844Y-113260359D01*
X98907678Y-113292925D01*
X98919465Y-113359845D01*
X98926473Y-113473229D01*
X98935081Y-113685317D01*
X98346586Y-113685317D01*
X98346586Y-113463446D01*
X98346621Y-113439514D01*
X98348775Y-113335702D01*
X98356222Y-113277222D01*
X98371677Y-113252840D01*
X98397854Y-113251321D01*
X98427729Y-113268324D01*
G37*
G36*
X96229571Y-105056377D02*
G01*
X96313042Y-105064333D01*
X96359433Y-105081450D01*
X96377994Y-105110499D01*
X96377977Y-105154251D01*
X96370261Y-105186648D01*
X96342173Y-105222341D01*
X96282496Y-105255035D01*
X96178650Y-105293520D01*
X96106005Y-105319230D01*
X96043101Y-105346574D01*
X96025570Y-105365723D01*
X96046816Y-105381057D01*
X96068135Y-105389291D01*
X96145348Y-105418993D01*
X96237243Y-105454240D01*
X96256265Y-105461653D01*
X96328570Y-105496545D01*
X96361358Y-105533993D01*
X96369077Y-105588738D01*
X96369077Y-105672745D01*
X96083437Y-105681130D01*
X96071686Y-105681473D01*
X95944430Y-105684284D01*
X95864159Y-105682541D01*
X95820127Y-105674365D01*
X95801588Y-105657878D01*
X95797797Y-105631200D01*
X95803531Y-105600999D01*
X95829980Y-105581600D01*
X95889778Y-105570766D01*
X95995548Y-105564222D01*
X96193298Y-105555559D01*
X95995548Y-105487254D01*
X95891419Y-105447134D01*
X95820363Y-105406660D01*
X95797797Y-105369806D01*
X95813020Y-105339670D01*
X95877324Y-105297310D01*
X95995548Y-105247685D01*
X96193298Y-105174706D01*
X95993665Y-105166000D01*
X95904197Y-105160832D01*
X95836434Y-105151112D01*
X95806717Y-105134476D01*
X95803641Y-105107408D01*
X95803660Y-105107311D01*
X95817596Y-105081852D01*
X95855051Y-105066349D01*
X95927701Y-105058302D01*
X96047219Y-105055208D01*
X96099767Y-105054814D01*
X96229571Y-105056377D01*
G37*
G36*
X98536622Y-110659561D02*
G01*
X98447826Y-110692850D01*
X98397854Y-110712036D01*
X98394546Y-110713330D01*
X98356732Y-110714118D01*
X98346586Y-110668177D01*
X98355671Y-110627741D01*
X98405178Y-110588385D01*
X98431558Y-110577224D01*
X98456960Y-110537265D01*
X98463771Y-110456551D01*
X98463489Y-110449586D01*
X98580957Y-110449586D01*
X98581209Y-110465626D01*
X98591338Y-110509904D01*
X98625138Y-110513779D01*
X98694697Y-110480538D01*
X98764492Y-110441850D01*
X98672724Y-110409860D01*
X98610625Y-110391739D01*
X98585539Y-110402468D01*
X98580957Y-110449586D01*
X98463489Y-110449586D01*
X98461628Y-110403534D01*
X98444873Y-110348641D01*
X98405178Y-110324717D01*
X98368929Y-110304240D01*
X98346586Y-110240307D01*
X98346586Y-110171220D01*
X98582722Y-110258286D01*
X98644287Y-110281130D01*
X98771362Y-110330313D01*
X98854979Y-110367737D01*
X98903882Y-110398440D01*
X98926813Y-110427459D01*
X98932514Y-110459830D01*
X98927151Y-110480014D01*
X98891512Y-110514027D01*
X98815445Y-110553240D01*
X98690819Y-110602454D01*
X98648052Y-110618223D01*
X98625138Y-110626724D01*
X98536622Y-110659561D01*
G37*
G36*
X95854375Y-104576256D02*
G01*
X95878429Y-104609832D01*
X95885686Y-104691315D01*
X95891072Y-104769621D01*
X95911001Y-104802419D01*
X95948466Y-104780838D01*
X96006419Y-104705217D01*
X96018956Y-104687630D01*
X96099610Y-104609938D01*
X96185236Y-104577218D01*
X96263750Y-104594663D01*
X96298145Y-104621557D01*
X96347695Y-104699057D01*
X96359975Y-104786740D01*
X96337728Y-104868971D01*
X96283696Y-104930115D01*
X96200622Y-104954534D01*
X96178925Y-104951714D01*
X96151500Y-104924042D01*
X96162361Y-104883748D01*
X96209654Y-104851903D01*
X96245960Y-104828600D01*
X96263047Y-104777446D01*
X96242503Y-104725855D01*
X96187598Y-104696814D01*
X96160711Y-104696971D01*
X96107548Y-104726440D01*
X96047321Y-104802483D01*
X96033410Y-104822292D01*
X95959624Y-104902854D01*
X95879381Y-104961565D01*
X95811066Y-104984279D01*
X95810540Y-104984119D01*
X95804100Y-104953537D01*
X95799532Y-104880291D01*
X95797797Y-104779204D01*
X95798437Y-104715002D01*
X95804201Y-104629555D01*
X95817865Y-104586190D01*
X95841741Y-104574129D01*
X95854375Y-104576256D01*
G37*
G36*
X101252334Y-112327190D02*
G01*
X101324415Y-112384871D01*
X101358649Y-112477754D01*
X101367830Y-112572053D01*
X101009023Y-112572053D01*
X101018116Y-112462725D01*
X101025146Y-112410580D01*
X101051832Y-112356083D01*
X101109768Y-112324534D01*
X101156938Y-112313659D01*
X101252334Y-112327190D01*
G37*
G36*
X98615164Y-111525426D02*
G01*
X98507626Y-111564817D01*
X98425469Y-111592479D01*
X98383206Y-111603406D01*
X98355394Y-111591979D01*
X98347130Y-111551992D01*
X98365017Y-111504834D01*
X98405178Y-111473437D01*
X98427330Y-111463477D01*
X98455915Y-111422620D01*
X98463771Y-111341603D01*
X98580957Y-111341603D01*
X98590514Y-111382002D01*
X98632012Y-111395863D01*
X98712791Y-111372067D01*
X98746042Y-111355795D01*
X98742696Y-111339576D01*
X98688911Y-111315533D01*
X98627157Y-111292644D01*
X98593698Y-111283010D01*
X98586317Y-111293918D01*
X98580957Y-111341603D01*
X98463771Y-111341603D01*
X98462256Y-111298311D01*
X98445809Y-111237849D01*
X98405178Y-111209769D01*
X98374376Y-111187801D01*
X98349409Y-111142123D01*
X98345314Y-111097826D01*
X98368558Y-111078149D01*
X98382982Y-111081523D01*
X98443751Y-111101353D01*
X98538535Y-111134977D01*
X98654198Y-111177810D01*
X98716185Y-111201526D01*
X98819137Y-111244400D01*
X98880527Y-111278134D01*
X98910166Y-111308864D01*
X98917866Y-111342726D01*
X98917336Y-111353038D01*
X98903819Y-111386443D01*
X98864553Y-111418550D01*
X98789556Y-111455858D01*
X98668846Y-111504868D01*
X98632012Y-111518974D01*
X98615164Y-111525426D01*
G37*
G36*
X100895375Y-106333293D02*
G01*
X100896131Y-106294361D01*
X100901583Y-106259704D01*
X101012560Y-106259704D01*
X101012560Y-106361211D01*
X101188339Y-106361211D01*
X101211028Y-106361197D01*
X101298715Y-106359123D01*
X101344254Y-106348907D01*
X101361453Y-106324003D01*
X101364117Y-106277862D01*
X101363482Y-106261661D01*
X101332020Y-106172902D01*
X101263194Y-106116288D01*
X101170948Y-106098913D01*
X101069227Y-106127870D01*
X101027947Y-106171331D01*
X101012560Y-106259704D01*
X100901583Y-106259704D01*
X100918662Y-106151130D01*
X100975006Y-106053654D01*
X101068563Y-105998031D01*
X101202732Y-105980358D01*
X101289505Y-105991419D01*
X101382091Y-106045259D01*
X101442563Y-106145904D01*
X101472868Y-106295626D01*
X101489441Y-106478397D01*
X100895375Y-106478397D01*
X100895375Y-106333293D01*
G37*
G36*
X100937947Y-103923665D02*
G01*
X100987917Y-103953110D01*
X101074162Y-104013916D01*
X101238302Y-104131728D01*
X101336253Y-104030668D01*
X101399643Y-103969083D01*
X101449124Y-103935739D01*
X101474287Y-103946603D01*
X101481303Y-104000387D01*
X101480442Y-104012837D01*
X101445640Y-104084888D01*
X101357667Y-104168842D01*
X101234030Y-104266517D01*
X101350343Y-104281165D01*
X101405406Y-104290520D01*
X101453708Y-104313529D01*
X101466655Y-104354406D01*
X101462496Y-104380799D01*
X101442556Y-104398818D01*
X101396130Y-104409915D01*
X101312516Y-104416601D01*
X101181015Y-104421384D01*
X100895375Y-104429769D01*
X100895375Y-104355467D01*
X100899890Y-104312277D01*
X100927642Y-104286808D01*
X100996183Y-104281165D01*
X101052456Y-104276871D01*
X101110022Y-104253013D01*
X101117404Y-104213897D01*
X101070420Y-104166010D01*
X101002479Y-104119136D01*
X100933947Y-104061495D01*
X100902738Y-104013026D01*
X100899847Y-103963011D01*
X100902734Y-103945979D01*
X100913227Y-103922361D01*
X100937947Y-103923665D01*
G37*
G36*
X96072724Y-106800648D02*
G01*
X95945656Y-106799576D01*
X95865165Y-106795260D01*
X95820715Y-106785621D01*
X95801770Y-106768582D01*
X95797797Y-106742065D01*
X95801148Y-106715613D01*
X95829663Y-106690026D01*
X95900334Y-106683472D01*
X95904181Y-106683468D01*
X95970944Y-106678276D01*
X95997874Y-106651859D01*
X96000536Y-106617555D01*
X96091210Y-106617555D01*
X96092956Y-106643489D01*
X96116403Y-106675536D01*
X96180506Y-106683472D01*
X96238169Y-106679191D01*
X96262316Y-106653610D01*
X96261072Y-106588498D01*
X96250078Y-106542042D01*
X96211908Y-106490455D01*
X96162289Y-106477759D01*
X96116692Y-106512135D01*
X96102323Y-106546552D01*
X96091210Y-106617555D01*
X96000536Y-106617555D01*
X96002872Y-106587453D01*
X96003373Y-106567324D01*
X96030204Y-106456644D01*
X96094465Y-106386026D01*
X96191372Y-106361211D01*
X96197053Y-106361245D01*
X96274929Y-106373628D01*
X96326113Y-106415007D01*
X96357460Y-106495139D01*
X96375825Y-106623784D01*
X96391863Y-106800657D01*
X96094830Y-106800657D01*
X96072724Y-106800648D01*
G37*
G36*
X98703545Y-105911273D02*
G01*
X98775626Y-105968954D01*
X98809860Y-106061837D01*
X98819041Y-106156136D01*
X98460234Y-106156136D01*
X98469327Y-106046808D01*
X98476357Y-105994663D01*
X98503043Y-105940166D01*
X98560979Y-105908617D01*
X98608149Y-105897742D01*
X98703545Y-105911273D01*
G37*
G36*
X100957251Y-104486270D02*
G01*
X100992450Y-104496387D01*
X101008651Y-104534927D01*
X101012560Y-104616842D01*
X101012560Y-104747443D01*
X101239607Y-104756000D01*
X101282203Y-104757717D01*
X101380745Y-104764115D01*
X101436404Y-104774808D01*
X101461075Y-104793313D01*
X101466655Y-104823149D01*
X101462496Y-104849542D01*
X101442556Y-104867561D01*
X101396130Y-104878658D01*
X101312516Y-104885344D01*
X101181015Y-104890127D01*
X100895375Y-104898512D01*
X100895375Y-104692376D01*
X100895394Y-104674332D01*
X100897504Y-104573293D01*
X100905601Y-104516597D01*
X100923238Y-104491746D01*
X100953967Y-104486240D01*
X100957251Y-104486270D01*
G37*
G36*
X96154756Y-113088897D02*
G01*
X96226838Y-113146578D01*
X96261072Y-113239461D01*
X96270252Y-113333760D01*
X95911445Y-113333760D01*
X95920538Y-113224432D01*
X95927569Y-113172287D01*
X95954255Y-113117790D01*
X96012190Y-113086241D01*
X96059360Y-113075366D01*
X96154756Y-113088897D01*
G37*
G36*
X93454189Y-110321061D02*
G01*
X93630073Y-110445098D01*
X93747153Y-110330773D01*
X93810057Y-110270707D01*
X93846805Y-110243048D01*
X93861538Y-110249784D01*
X93864233Y-110287202D01*
X93860255Y-110311995D01*
X93819497Y-110390288D01*
X93740947Y-110483574D01*
X93617662Y-110609193D01*
X93740947Y-110609193D01*
X93816973Y-110613080D01*
X93854949Y-110630202D01*
X93864233Y-110667786D01*
X93864209Y-110670924D01*
X93859161Y-110696543D01*
X93837949Y-110712778D01*
X93789966Y-110721748D01*
X93704607Y-110725574D01*
X93571268Y-110726378D01*
X93555578Y-110726374D01*
X93427479Y-110725364D01*
X93346307Y-110721122D01*
X93301458Y-110711525D01*
X93282325Y-110694453D01*
X93278304Y-110667786D01*
X93280963Y-110643659D01*
X93308100Y-110616278D01*
X93377254Y-110609193D01*
X93381850Y-110609150D01*
X93459074Y-110596611D01*
X93509977Y-110568500D01*
X93513573Y-110563821D01*
X93519066Y-110533450D01*
X93487487Y-110496761D01*
X93411079Y-110443990D01*
X93331898Y-110387737D01*
X93289767Y-110336398D01*
X93278357Y-110278598D01*
X93278304Y-110197024D01*
X93454189Y-110321061D01*
G37*
G36*
X93635263Y-105911273D02*
G01*
X93707345Y-105968954D01*
X93741579Y-106061837D01*
X93750759Y-106156136D01*
X93391953Y-106156136D01*
X93401045Y-106046808D01*
X93408076Y-105994663D01*
X93434762Y-105940166D01*
X93492698Y-105908617D01*
X93539867Y-105897742D01*
X93635263Y-105911273D01*
G37*
G36*
X100970970Y-107080992D02*
G01*
X100994907Y-107126855D01*
X101006841Y-107218395D01*
X101015771Y-107357290D01*
X101248537Y-107357290D01*
X101307936Y-107357490D01*
X101401520Y-107360388D01*
X101453726Y-107369102D01*
X101476379Y-107386608D01*
X101481303Y-107415882D01*
X101481279Y-107419020D01*
X101476232Y-107444640D01*
X101455019Y-107460875D01*
X101407036Y-107469845D01*
X101321678Y-107473671D01*
X101188339Y-107474475D01*
X100895375Y-107474475D01*
X100895375Y-107265640D01*
X100897104Y-107157874D01*
X100904231Y-107096989D01*
X100919746Y-107071461D01*
X100946643Y-107069765D01*
X100970970Y-107080992D01*
G37*
G36*
X95797797Y-106128218D02*
G01*
X95798554Y-106089286D01*
X95804005Y-106054629D01*
X95914982Y-106054629D01*
X95914982Y-106156136D01*
X96090761Y-106156136D01*
X96113450Y-106156122D01*
X96201137Y-106154048D01*
X96246676Y-106143832D01*
X96263875Y-106118928D01*
X96266539Y-106072787D01*
X96265904Y-106056586D01*
X96234442Y-105967827D01*
X96165616Y-105911213D01*
X96073370Y-105893838D01*
X95971649Y-105922796D01*
X95930369Y-105966256D01*
X95914982Y-106054629D01*
X95804005Y-106054629D01*
X95821084Y-105946055D01*
X95877429Y-105848579D01*
X95970985Y-105792956D01*
X96105154Y-105775283D01*
X96191927Y-105786344D01*
X96284513Y-105840184D01*
X96344985Y-105940829D01*
X96375290Y-106090551D01*
X96391863Y-106273322D01*
X95797797Y-106273322D01*
X95797797Y-106128218D01*
G37*
G36*
X103723521Y-108704930D02*
G01*
X103851621Y-108705939D01*
X103932792Y-108710182D01*
X103977642Y-108719778D01*
X103996775Y-108736850D01*
X104000796Y-108763518D01*
X104000793Y-108764451D01*
X103994662Y-108795363D01*
X103968144Y-108812885D01*
X103908513Y-108820850D01*
X103803045Y-108823091D01*
X103605294Y-108824071D01*
X103803564Y-108947601D01*
X103853911Y-108979695D01*
X103940270Y-109041996D01*
X103984428Y-109089581D01*
X103993991Y-109129723D01*
X103986840Y-109154573D01*
X103964654Y-109173258D01*
X103916869Y-109184835D01*
X103832485Y-109191813D01*
X103700507Y-109196701D01*
X103682375Y-109197228D01*
X103557365Y-109199931D01*
X103478874Y-109198035D01*
X103436138Y-109189608D01*
X103418391Y-109172718D01*
X103414867Y-109145432D01*
X103418222Y-109118227D01*
X103439581Y-109097157D01*
X103492572Y-109087862D01*
X103590646Y-109085779D01*
X103670620Y-109083354D01*
X103739614Y-109075393D01*
X103765987Y-109063806D01*
X103765942Y-109063338D01*
X103740651Y-109037777D01*
X103677840Y-108993320D01*
X103590646Y-108939296D01*
X103579028Y-108932440D01*
X103482454Y-108868971D01*
X103430793Y-108817904D01*
X103415304Y-108770842D01*
X103415379Y-108760101D01*
X103420679Y-108733829D01*
X103441908Y-108717579D01*
X103489734Y-108708947D01*
X103574819Y-108705530D01*
X103707831Y-108704925D01*
X103723521Y-108704930D01*
G37*
G36*
X101358569Y-105007577D02*
G01*
X101415987Y-105065550D01*
X101462282Y-105137851D01*
X101481303Y-105204126D01*
X101477481Y-105252143D01*
X101436012Y-105360732D01*
X101359176Y-105442375D01*
X101259782Y-105492241D01*
X101150637Y-105505501D01*
X101044548Y-105477323D01*
X100954324Y-105402877D01*
X100917355Y-105340506D01*
X100893649Y-105231231D01*
X100912375Y-105126414D01*
X100972566Y-105044998D01*
X100975823Y-105042464D01*
X101040446Y-105001284D01*
X101089752Y-104984279D01*
X101106564Y-104986141D01*
X101128583Y-105011913D01*
X101108591Y-105059761D01*
X101049721Y-105119129D01*
X101006144Y-105158094D01*
X100985115Y-105203280D01*
X100998452Y-105264317D01*
X101009405Y-105289289D01*
X101074325Y-105357129D01*
X101165775Y-105382470D01*
X101267867Y-105359688D01*
X101304178Y-105336078D01*
X101350929Y-105269622D01*
X101358353Y-105194827D01*
X101321654Y-105131991D01*
X101302140Y-105110264D01*
X101279542Y-105055892D01*
X101280332Y-105006087D01*
X101306856Y-104984279D01*
X101358569Y-105007577D01*
G37*
G36*
X93741499Y-111335605D02*
G01*
X93798917Y-111393578D01*
X93845212Y-111465879D01*
X93864233Y-111532153D01*
X93860411Y-111580170D01*
X93818942Y-111688759D01*
X93742106Y-111770402D01*
X93642712Y-111820269D01*
X93533567Y-111833528D01*
X93427478Y-111805351D01*
X93337254Y-111730905D01*
X93300284Y-111668534D01*
X93276579Y-111559258D01*
X93295305Y-111454442D01*
X93355496Y-111373026D01*
X93416300Y-111332674D01*
X93479478Y-111312612D01*
X93509511Y-111329423D01*
X93498722Y-111376367D01*
X93439434Y-111446707D01*
X93383673Y-111511265D01*
X93370467Y-111576453D01*
X93406705Y-111649476D01*
X93449826Y-111682491D01*
X93534112Y-111703650D01*
X93626264Y-111698688D01*
X93700365Y-111666136D01*
X93739654Y-111602714D01*
X93741250Y-111523647D01*
X93703102Y-111458789D01*
X93684498Y-111438060D01*
X93662364Y-111384059D01*
X93663406Y-111334210D01*
X93689786Y-111312307D01*
X93741499Y-111335605D01*
G37*
G36*
X109725540Y-92400574D02*
G01*
X109716823Y-92652352D01*
X109702779Y-92878719D01*
X109683402Y-93067700D01*
X109621034Y-93469507D01*
X109498105Y-94038229D01*
X109335840Y-94585865D01*
X109131343Y-95121756D01*
X108881722Y-95655244D01*
X108879509Y-95659578D01*
X108573418Y-96204128D01*
X108227656Y-96719462D01*
X107844652Y-97204053D01*
X107426833Y-97656372D01*
X106976626Y-98074892D01*
X106496460Y-98458086D01*
X105988762Y-98804427D01*
X105455960Y-99112385D01*
X104900482Y-99380434D01*
X104324755Y-99607046D01*
X103731207Y-99790694D01*
X103122267Y-99929849D01*
X102500361Y-100022984D01*
X101867918Y-100068572D01*
X101843357Y-100069420D01*
X101748888Y-100073180D01*
X101676817Y-100076825D01*
X101641132Y-100079670D01*
X101598221Y-100081949D01*
X101510140Y-100080311D01*
X101388451Y-100074831D01*
X101241923Y-100066154D01*
X101079321Y-100054927D01*
X100909415Y-100041797D01*
X100740971Y-100027409D01*
X100582756Y-100012410D01*
X100443538Y-99997447D01*
X100332084Y-99983165D01*
X100268147Y-99973943D01*
X100137001Y-99956003D01*
X100037708Y-99945311D01*
X99957421Y-99941586D01*
X99883292Y-99944548D01*
X99802475Y-99953916D01*
X99702124Y-99969410D01*
X99665127Y-99975246D01*
X99509714Y-99997819D01*
X99343576Y-100019606D01*
X99196886Y-100036593D01*
X99154591Y-100040586D01*
X98993476Y-100050984D01*
X98797707Y-100058235D01*
X98579133Y-100062342D01*
X98349606Y-100063310D01*
X98120977Y-100061145D01*
X97905098Y-100055852D01*
X97713818Y-100047436D01*
X97558989Y-100035902D01*
X97431743Y-100022368D01*
X96800408Y-99925980D01*
X96183977Y-99783349D01*
X95584711Y-99596011D01*
X95004869Y-99365502D01*
X94446712Y-99093357D01*
X93912501Y-98781114D01*
X93404495Y-98430307D01*
X92924955Y-98042473D01*
X92476142Y-97619148D01*
X92060315Y-97161867D01*
X91679735Y-96672166D01*
X91336662Y-96151582D01*
X91033357Y-95601649D01*
X90893327Y-95308127D01*
X90659902Y-94734835D01*
X90475345Y-94152382D01*
X90339273Y-93558945D01*
X90251308Y-92952698D01*
X90211068Y-92331818D01*
X90213679Y-92097561D01*
X90404770Y-92097561D01*
X90404891Y-92218302D01*
X90405992Y-92420219D01*
X90408634Y-92585512D01*
X90413296Y-92723281D01*
X90420455Y-92842624D01*
X90430591Y-92952641D01*
X90444180Y-93062431D01*
X90461701Y-93181093D01*
X90522451Y-93527663D01*
X90661731Y-94124719D01*
X90841366Y-94694725D01*
X91062799Y-95241486D01*
X91327474Y-95768808D01*
X91636832Y-96280498D01*
X91806913Y-96530057D01*
X92161616Y-96996047D01*
X92541865Y-97424784D01*
X92953346Y-97821975D01*
X93401744Y-98193323D01*
X93892743Y-98544536D01*
X94349779Y-98826624D01*
X94900070Y-99112136D01*
X95474894Y-99355894D01*
X96070295Y-99556419D01*
X96682318Y-99712231D01*
X97307005Y-99821849D01*
X97366130Y-99828577D01*
X97482065Y-99838120D01*
X97627121Y-99847263D01*
X97793352Y-99855762D01*
X97972817Y-99863376D01*
X98157570Y-99869861D01*
X98339668Y-99874975D01*
X98511167Y-99878475D01*
X98664124Y-99880119D01*
X98790595Y-99879664D01*
X98882636Y-99876867D01*
X98932303Y-99871486D01*
X98942629Y-99869454D01*
X98999102Y-99862299D01*
X99086460Y-99853763D01*
X99190587Y-99845277D01*
X99235841Y-99841538D01*
X99325606Y-99831447D01*
X99387810Y-99820600D01*
X99409671Y-99811369D01*
X100519994Y-99811369D01*
X100530406Y-99818758D01*
X100578344Y-99831533D01*
X100652095Y-99843243D01*
X100675144Y-99845491D01*
X100759275Y-99850561D01*
X100880446Y-99855468D01*
X101029916Y-99860069D01*
X101198944Y-99864219D01*
X101378788Y-99867775D01*
X101560708Y-99870594D01*
X101735962Y-99872531D01*
X101895809Y-99873444D01*
X102031508Y-99873188D01*
X102134318Y-99871620D01*
X102195497Y-99868597D01*
X102248099Y-99863144D01*
X102458924Y-99839213D01*
X102671640Y-99812139D01*
X102873217Y-99783733D01*
X103050626Y-99755806D01*
X103190835Y-99730173D01*
X103721056Y-99603639D01*
X104315356Y-99415925D01*
X104888722Y-99185343D01*
X105439060Y-98913761D01*
X105964274Y-98603048D01*
X106462272Y-98255074D01*
X106930959Y-97871706D01*
X107368240Y-97454815D01*
X107772022Y-97006268D01*
X108140210Y-96527935D01*
X108470710Y-96021684D01*
X108761428Y-95489384D01*
X109010270Y-94932905D01*
X109215141Y-94354114D01*
X109315645Y-94002994D01*
X109420329Y-93544162D01*
X109492668Y-93085358D01*
X109534807Y-92612163D01*
X109548890Y-92110160D01*
X109546133Y-91852579D01*
X109523977Y-91410481D01*
X109477685Y-90990794D01*
X109404885Y-90578529D01*
X109303208Y-90158698D01*
X109170283Y-89716311D01*
X109006441Y-89264080D01*
X108760081Y-88713535D01*
X108470981Y-88185260D01*
X108141487Y-87681462D01*
X107773949Y-87204350D01*
X107370714Y-86756134D01*
X106934129Y-86339021D01*
X106466544Y-85955221D01*
X105970304Y-85606943D01*
X105447759Y-85296394D01*
X104901256Y-85025784D01*
X104333143Y-84797322D01*
X103745768Y-84613216D01*
X103578887Y-84569390D01*
X103241102Y-84490097D01*
X102915292Y-84428154D01*
X102586017Y-84381186D01*
X102237839Y-84346822D01*
X101855319Y-84322689D01*
X101851853Y-84322522D01*
X101729734Y-84319388D01*
X101579858Y-84319600D01*
X101411996Y-84322731D01*
X101235915Y-84328352D01*
X101061386Y-84336035D01*
X100898177Y-84345352D01*
X100756057Y-84355876D01*
X100644796Y-84367177D01*
X100574163Y-84378828D01*
X100569279Y-84380464D01*
X100569242Y-84392373D01*
X100605303Y-84413207D01*
X100680533Y-84444265D01*
X100798002Y-84486843D01*
X100960781Y-84542240D01*
X101134489Y-84602038D01*
X101724239Y-84834526D01*
X102280597Y-85101989D01*
X102807740Y-85406577D01*
X103309846Y-85750438D01*
X103339204Y-85771942D01*
X103346997Y-85777650D01*
X103491559Y-85874645D01*
X103624869Y-85946575D01*
X103765100Y-86003542D01*
X104180028Y-86167955D01*
X104662911Y-86405007D01*
X105129701Y-86683985D01*
X105572085Y-87000302D01*
X105794356Y-87182068D01*
X106201485Y-87563358D01*
X106572673Y-87977773D01*
X106906307Y-88422321D01*
X107200772Y-88894011D01*
X107454454Y-89389850D01*
X107665740Y-89906847D01*
X107833014Y-90442008D01*
X107954664Y-90992344D01*
X108029074Y-91554860D01*
X108036974Y-91653128D01*
X108050104Y-92134170D01*
X108052108Y-92207572D01*
X108018246Y-92763760D01*
X107936181Y-93317385D01*
X107806708Y-93864137D01*
X107630622Y-94399706D01*
X107408716Y-94919783D01*
X107267911Y-95195080D01*
X106995299Y-95648126D01*
X106683961Y-96079870D01*
X106337877Y-96486736D01*
X105961025Y-96865146D01*
X105557386Y-97211521D01*
X105130939Y-97522283D01*
X104685664Y-97793856D01*
X104225539Y-98022661D01*
X103754545Y-98205120D01*
X103592068Y-98270878D01*
X103401767Y-98388630D01*
X103337248Y-98436897D01*
X103220559Y-98524193D01*
X102843868Y-98776703D01*
X102435009Y-99017331D01*
X102005879Y-99240087D01*
X101568375Y-99438980D01*
X101134394Y-99608017D01*
X100715833Y-99741210D01*
X100687807Y-99749173D01*
X100602334Y-99775725D01*
X100542550Y-99797835D01*
X100520981Y-99810777D01*
X100519994Y-99811369D01*
X99409671Y-99811369D01*
X99411073Y-99810777D01*
X99400015Y-99800752D01*
X99351972Y-99780847D01*
X99278781Y-99759448D01*
X99182449Y-99733307D01*
X98970571Y-99665919D01*
X98731448Y-99579440D01*
X98475621Y-99478272D01*
X98213633Y-99366821D01*
X97956026Y-99249489D01*
X97713342Y-99130680D01*
X97496122Y-99014798D01*
X97368329Y-98940726D01*
X97180497Y-98825643D01*
X96986366Y-98700733D01*
X96798624Y-98574392D01*
X96629957Y-98455015D01*
X96572513Y-98411371D01*
X96900236Y-98411371D01*
X96929510Y-98440417D01*
X96996407Y-98489288D01*
X97102980Y-98559694D01*
X97251285Y-98653343D01*
X97434077Y-98763841D01*
X97989101Y-99061077D01*
X98568424Y-99316999D01*
X99164983Y-99528694D01*
X99771714Y-99693247D01*
X99787182Y-99696809D01*
X99863307Y-99713921D01*
X99923824Y-99724277D01*
X99979485Y-99726973D01*
X100041043Y-99721107D01*
X100119248Y-99705775D01*
X100224854Y-99680074D01*
X100368612Y-99643101D01*
X100423364Y-99628827D01*
X100941598Y-99476468D01*
X101429440Y-99299170D01*
X101899269Y-99091512D01*
X102363468Y-98848072D01*
X102834417Y-98563430D01*
X102872373Y-98538786D01*
X102946083Y-98488953D01*
X102995258Y-98452816D01*
X103010806Y-98436897D01*
X102993485Y-98436906D01*
X102935211Y-98443718D01*
X102846260Y-98456808D01*
X102737263Y-98474705D01*
X102417727Y-98520011D01*
X102029102Y-98553038D01*
X101631851Y-98565321D01*
X101237002Y-98557129D01*
X100855582Y-98528730D01*
X100498619Y-98480393D01*
X100177142Y-98412385D01*
X100104987Y-98395244D01*
X100032817Y-98386356D01*
X99960620Y-98392029D01*
X99864284Y-98412250D01*
X99597816Y-98466109D01*
X99264076Y-98514371D01*
X98911545Y-98548069D01*
X98556174Y-98566080D01*
X98213915Y-98567279D01*
X97900719Y-98550544D01*
X97781672Y-98538760D01*
X97597107Y-98516811D01*
X97408854Y-98490780D01*
X97230392Y-98462696D01*
X97075203Y-98434588D01*
X96956769Y-98408485D01*
X96946333Y-98405921D01*
X96906528Y-98400442D01*
X96900236Y-98411371D01*
X96572513Y-98411371D01*
X96493050Y-98350997D01*
X96481784Y-98342081D01*
X96392239Y-98277347D01*
X96306265Y-98224226D01*
X96241066Y-98193475D01*
X96183763Y-98172449D01*
X96091696Y-98135756D01*
X95978856Y-98089003D01*
X95858097Y-98037426D01*
X95671312Y-97952612D01*
X95183809Y-97693973D01*
X94719587Y-97392899D01*
X94281866Y-97052525D01*
X93873869Y-96675985D01*
X93498814Y-96266411D01*
X93159923Y-95826937D01*
X92860416Y-95360698D01*
X92603515Y-94870826D01*
X92513645Y-94670303D01*
X92313275Y-94139929D01*
X92160702Y-93598427D01*
X92055896Y-93048895D01*
X91998829Y-92494431D01*
X91992364Y-92110160D01*
X92191915Y-92110160D01*
X92192039Y-92217378D01*
X92193094Y-92411540D01*
X92195643Y-92568334D01*
X92200191Y-92696609D01*
X92207241Y-92805209D01*
X92217298Y-92902982D01*
X92230868Y-92998773D01*
X92248454Y-93101431D01*
X92255989Y-93142406D01*
X92385453Y-93715779D01*
X92554524Y-94258498D01*
X92763871Y-94771870D01*
X93014162Y-95257197D01*
X93306064Y-95715787D01*
X93640245Y-96148942D01*
X94017373Y-96557968D01*
X94297871Y-96821211D01*
X94706661Y-97154405D01*
X95135422Y-97449532D01*
X95575819Y-97700481D01*
X95583177Y-97704241D01*
X95690401Y-97758188D01*
X95780920Y-97802228D01*
X95845398Y-97831915D01*
X95874498Y-97842799D01*
X95875230Y-97841079D01*
X95856220Y-97814469D01*
X95809167Y-97760653D01*
X95739839Y-97686059D01*
X95654005Y-97597115D01*
X95469152Y-97402438D01*
X95058977Y-96919767D01*
X94692191Y-96411861D01*
X94369380Y-95879960D01*
X94091130Y-95325303D01*
X93858028Y-94749130D01*
X93670659Y-94152680D01*
X93529609Y-93537194D01*
X93437337Y-92916509D01*
X93640708Y-92916509D01*
X93653974Y-93105498D01*
X93669709Y-93255088D01*
X93705230Y-93474563D01*
X93756024Y-93721248D01*
X93819506Y-93984567D01*
X93893094Y-94253947D01*
X93974204Y-94518814D01*
X94060253Y-94768593D01*
X94102724Y-94876780D01*
X94177137Y-95048886D01*
X94267402Y-95244326D01*
X94367878Y-95451751D01*
X94472923Y-95659814D01*
X94576897Y-95857166D01*
X94674159Y-96032459D01*
X94759066Y-96174345D01*
X94897763Y-96385030D01*
X95174375Y-96765453D01*
X95474649Y-97133452D01*
X95788156Y-97476562D01*
X96104467Y-97782320D01*
X96132376Y-97807209D01*
X96172012Y-97841079D01*
X96238488Y-97897884D01*
X96338287Y-97977562D01*
X96421651Y-98038387D01*
X96478458Y-98072507D01*
X96488982Y-98077173D01*
X96625050Y-98127118D01*
X96801326Y-98177512D01*
X97008562Y-98226491D01*
X97237511Y-98272197D01*
X97478926Y-98312768D01*
X97723560Y-98346343D01*
X97962164Y-98371062D01*
X98371544Y-98391325D01*
X98793712Y-98380044D01*
X98866161Y-98374295D01*
X98980437Y-98362651D01*
X99108629Y-98347574D01*
X99240062Y-98330525D01*
X99364068Y-98312963D01*
X99469973Y-98296349D01*
X99547106Y-98282142D01*
X99584797Y-98271804D01*
X99585570Y-98262177D01*
X100464680Y-98262177D01*
X100478676Y-98279502D01*
X100536363Y-98295127D01*
X100639810Y-98311980D01*
X100791086Y-98332991D01*
X100844723Y-98339849D01*
X101043481Y-98359211D01*
X101266743Y-98373562D01*
X101499632Y-98382460D01*
X101727273Y-98385466D01*
X101934789Y-98382137D01*
X102107303Y-98372032D01*
X102159532Y-98367087D01*
X102410514Y-98337989D01*
X102654104Y-98301415D01*
X102883141Y-98258948D01*
X103090465Y-98212172D01*
X103268914Y-98162669D01*
X103411328Y-98112023D01*
X103510547Y-98061816D01*
X103515198Y-98058703D01*
X103586676Y-98003150D01*
X103684941Y-97916945D01*
X103691560Y-97910785D01*
X104006374Y-97910785D01*
X104014542Y-97910116D01*
X104059699Y-97892784D01*
X104136594Y-97857813D01*
X104236930Y-97809379D01*
X104352406Y-97751660D01*
X104474724Y-97688833D01*
X104595584Y-97625074D01*
X104706688Y-97564562D01*
X104799735Y-97511473D01*
X105007435Y-97382766D01*
X105445053Y-97069664D01*
X105857029Y-96716364D01*
X106239443Y-96327043D01*
X106588375Y-95905880D01*
X106899905Y-95457054D01*
X107170114Y-94984744D01*
X107305865Y-94701765D01*
X107489853Y-94243181D01*
X107640674Y-93767147D01*
X107754319Y-93286909D01*
X107826776Y-92815716D01*
X107832437Y-92757276D01*
X107843978Y-92575527D01*
X107850787Y-92363344D01*
X107852952Y-92134170D01*
X107850562Y-91901447D01*
X107843705Y-91678618D01*
X107832469Y-91479125D01*
X107816942Y-91316410D01*
X107794606Y-91156395D01*
X107696603Y-90652065D01*
X107559616Y-90159237D01*
X107387308Y-89691768D01*
X107156488Y-89198927D01*
X106875191Y-88711132D01*
X106555035Y-88254355D01*
X106197454Y-87830143D01*
X105803881Y-87440043D01*
X105375747Y-87085603D01*
X104914487Y-86768369D01*
X104421533Y-86489888D01*
X104393848Y-86475805D01*
X104239593Y-86397841D01*
X104128229Y-86343940D01*
X104058007Y-86315136D01*
X104027178Y-86312464D01*
X104033993Y-86336961D01*
X104076702Y-86389660D01*
X104153556Y-86471596D01*
X104262806Y-86583805D01*
X104425712Y-86753848D01*
X104731973Y-87097183D01*
X105003739Y-87438743D01*
X105249282Y-87789987D01*
X105476876Y-88162373D01*
X105694793Y-88567363D01*
X105838155Y-88863501D01*
X106057642Y-89389243D01*
X106235780Y-89924925D01*
X106351811Y-90385725D01*
X106375582Y-90480127D01*
X106480059Y-91064426D01*
X106496314Y-91199806D01*
X106512760Y-91400768D01*
X106525244Y-91629708D01*
X106533491Y-91874375D01*
X106534829Y-91963392D01*
X106537222Y-92122520D01*
X106536160Y-92361893D01*
X106530029Y-92580242D01*
X106518551Y-92765319D01*
X106466039Y-93219642D01*
X106353381Y-93826473D01*
X106351962Y-93834114D01*
X106190202Y-94433924D01*
X105981509Y-95017455D01*
X105726634Y-95583086D01*
X105426327Y-96129199D01*
X105081340Y-96654176D01*
X104692424Y-97156397D01*
X104260330Y-97634242D01*
X104214923Y-97681064D01*
X104130375Y-97769712D01*
X104063489Y-97841846D01*
X104020182Y-97891019D01*
X104006374Y-97910785D01*
X103691560Y-97910785D01*
X103803690Y-97806433D01*
X103936622Y-97677960D01*
X104077433Y-97537870D01*
X104219823Y-97392509D01*
X104357488Y-97248222D01*
X104484127Y-97111355D01*
X104593437Y-96988252D01*
X104679117Y-96885259D01*
X104802581Y-96724609D01*
X105128812Y-96253400D01*
X105422331Y-95757983D01*
X105678899Y-95246549D01*
X105894278Y-94727287D01*
X106064230Y-94208390D01*
X106079040Y-94155673D01*
X106112612Y-94033622D01*
X106139622Y-93931806D01*
X106157613Y-93859623D01*
X106164125Y-93826473D01*
X106157883Y-93830919D01*
X106135084Y-93871696D01*
X106099499Y-93943947D01*
X106055277Y-94039546D01*
X105998399Y-94161883D01*
X105755851Y-94613896D01*
X105478885Y-95030084D01*
X105168496Y-95409526D01*
X104825683Y-95751300D01*
X104451441Y-96054487D01*
X104046766Y-96318166D01*
X103612656Y-96541417D01*
X103150108Y-96723317D01*
X103120302Y-96733425D01*
X102981082Y-96782496D01*
X102878295Y-96823405D01*
X102801773Y-96861039D01*
X102741352Y-96900286D01*
X102728417Y-96911146D01*
X102686866Y-96946032D01*
X102419901Y-97172960D01*
X102103181Y-97406305D01*
X101758715Y-97629365D01*
X101398010Y-97835162D01*
X101032571Y-98016716D01*
X100673904Y-98167048D01*
X100664164Y-98170716D01*
X100559493Y-98210713D01*
X100492309Y-98240224D01*
X100472540Y-98255932D01*
X100464680Y-98262177D01*
X99585570Y-98262177D01*
X99586072Y-98255932D01*
X99540679Y-98229826D01*
X99446956Y-98194940D01*
X99222633Y-98113056D01*
X98850987Y-97948720D01*
X98473353Y-97748845D01*
X98099820Y-97519357D01*
X97740472Y-97266183D01*
X97405395Y-96995251D01*
X97366337Y-96961690D01*
X97309853Y-96916569D01*
X97627022Y-96916569D01*
X97635981Y-96939441D01*
X97681909Y-96984523D01*
X97766515Y-97053651D01*
X97891504Y-97148661D01*
X98194538Y-97360417D01*
X98650681Y-97633173D01*
X99125874Y-97866830D01*
X99609467Y-98055764D01*
X99644022Y-98067370D01*
X99771066Y-98107578D01*
X99884453Y-98139862D01*
X99972928Y-98161171D01*
X100025241Y-98168456D01*
X100049007Y-98165676D01*
X100125717Y-98148049D01*
X100234408Y-98116953D01*
X100365186Y-98075575D01*
X100508160Y-98027103D01*
X100653438Y-97974727D01*
X100791127Y-97921632D01*
X100864318Y-97890837D01*
X101025834Y-97816354D01*
X101207255Y-97726203D01*
X101393958Y-97627967D01*
X101571318Y-97529228D01*
X101724713Y-97437569D01*
X101741706Y-97426875D01*
X101875107Y-97340248D01*
X102003371Y-97252640D01*
X102121925Y-97167707D01*
X102226196Y-97089106D01*
X102311611Y-97020493D01*
X102373597Y-96965525D01*
X102407580Y-96927857D01*
X102408989Y-96911146D01*
X102373248Y-96919048D01*
X102364961Y-96921204D01*
X102311905Y-96929129D01*
X102222338Y-96939163D01*
X102106344Y-96950239D01*
X101974005Y-96961291D01*
X101854455Y-96968949D01*
X101434960Y-96971432D01*
X101012927Y-96938143D01*
X100602397Y-96870609D01*
X100217410Y-96770356D01*
X100016993Y-96707044D01*
X99770729Y-96782439D01*
X99743178Y-96790757D01*
X99342638Y-96888219D01*
X98920773Y-96950365D01*
X98492736Y-96975589D01*
X98073678Y-96962285D01*
X98049332Y-96960290D01*
X97920947Y-96948879D01*
X97808821Y-96937507D01*
X97724288Y-96927394D01*
X97678682Y-96919760D01*
X97653326Y-96914072D01*
X97627022Y-96916569D01*
X97309853Y-96916569D01*
X97293285Y-96903334D01*
X97224827Y-96858541D01*
X97147742Y-96820315D01*
X97048810Y-96781655D01*
X96914811Y-96735566D01*
X96757184Y-96679850D01*
X96308238Y-96486307D01*
X95884918Y-96251128D01*
X95489563Y-95976900D01*
X95124510Y-95666208D01*
X94792095Y-95321637D01*
X94494656Y-94945773D01*
X94234531Y-94541201D01*
X94014056Y-94110507D01*
X93835569Y-93656276D01*
X93701408Y-93181093D01*
X93640708Y-92916509D01*
X93437337Y-92916509D01*
X93435464Y-92903910D01*
X93429784Y-92835467D01*
X93619123Y-92835467D01*
X93624108Y-92885491D01*
X93625112Y-92887738D01*
X93633000Y-92883949D01*
X93635724Y-92840914D01*
X93635558Y-92833089D01*
X93631195Y-92799620D01*
X93623174Y-92809896D01*
X93619123Y-92835467D01*
X93429784Y-92835467D01*
X93422397Y-92746452D01*
X93412827Y-92539955D01*
X93407839Y-92307477D01*
X93407478Y-92129345D01*
X93767428Y-92129345D01*
X93793223Y-92596223D01*
X93827764Y-92840914D01*
X93835672Y-92896937D01*
X93941103Y-93362803D01*
X94091251Y-93811734D01*
X94283897Y-94240733D01*
X94516821Y-94646803D01*
X94787802Y-95026947D01*
X95094621Y-95378168D01*
X95435058Y-95697470D01*
X95806893Y-95981854D01*
X96207906Y-96228326D01*
X96635878Y-96433886D01*
X96704997Y-96462372D01*
X96795976Y-96498528D01*
X96862509Y-96523295D01*
X96893640Y-96532482D01*
X96894731Y-96531116D01*
X96879672Y-96504034D01*
X96838486Y-96447541D01*
X96776429Y-96368605D01*
X96698762Y-96274198D01*
X96587430Y-96137616D01*
X96257901Y-95681522D01*
X95968964Y-95197481D01*
X95722152Y-94688898D01*
X95518995Y-94159183D01*
X95404726Y-93763183D01*
X95594724Y-93763183D01*
X95597016Y-93799448D01*
X95617535Y-93876990D01*
X95656074Y-93997791D01*
X95712427Y-94163831D01*
X95744671Y-94255108D01*
X95956871Y-94767603D01*
X96215009Y-95261534D01*
X96517090Y-95733401D01*
X96861120Y-96179704D01*
X96960236Y-96296954D01*
X97069161Y-96422180D01*
X97160045Y-96517653D01*
X97241081Y-96588409D01*
X97320463Y-96639481D01*
X97406383Y-96675906D01*
X97507036Y-96702718D01*
X97630614Y-96724953D01*
X97785311Y-96747645D01*
X97851706Y-96755323D01*
X97989948Y-96765626D01*
X98156623Y-96773376D01*
X98338618Y-96778363D01*
X98522817Y-96780376D01*
X98696107Y-96779205D01*
X98845373Y-96774639D01*
X98957501Y-96766468D01*
X98966428Y-96765390D01*
X99038104Y-96754394D01*
X99137368Y-96736742D01*
X99253195Y-96714674D01*
X99374561Y-96690432D01*
X99490442Y-96666257D01*
X99589815Y-96644390D01*
X99661655Y-96627072D01*
X99694939Y-96616546D01*
X99695616Y-96615935D01*
X99694367Y-96614435D01*
X100334278Y-96614435D01*
X100337117Y-96615935D01*
X100337488Y-96616131D01*
X100386719Y-96632371D01*
X100473590Y-96653786D01*
X100587394Y-96678183D01*
X100717422Y-96703369D01*
X100852967Y-96727151D01*
X100983321Y-96747337D01*
X101029118Y-96753109D01*
X101174446Y-96765545D01*
X101348082Y-96774287D01*
X101536941Y-96779213D01*
X101727937Y-96780203D01*
X101907985Y-96777137D01*
X102064000Y-96769896D01*
X102182898Y-96758358D01*
X102346508Y-96734799D01*
X102477229Y-96714390D01*
X102575010Y-96695251D01*
X102648498Y-96674258D01*
X102706344Y-96648286D01*
X102757197Y-96614213D01*
X102809706Y-96568913D01*
X102872521Y-96509262D01*
X103109798Y-96261701D01*
X103371980Y-95940394D01*
X103621157Y-95584904D01*
X103852180Y-95203796D01*
X104059903Y-94805638D01*
X104239178Y-94398998D01*
X104384856Y-93992441D01*
X104392728Y-93967261D01*
X104428777Y-93843697D01*
X104445835Y-93766536D01*
X104443900Y-93735535D01*
X104422968Y-93750455D01*
X104383039Y-93811053D01*
X104257465Y-94000920D01*
X104073950Y-94231436D01*
X103865293Y-94454218D01*
X103643790Y-94656299D01*
X103421737Y-94824714D01*
X103385845Y-94848555D01*
X103105837Y-95012150D01*
X102808848Y-95150072D01*
X102509071Y-95256407D01*
X102220696Y-95325241D01*
X102172364Y-95333904D01*
X102106052Y-95349414D01*
X102051969Y-95371626D01*
X102015988Y-95395714D01*
X101998078Y-95407704D01*
X101932340Y-95464807D01*
X101842720Y-95550098D01*
X101613737Y-95762506D01*
X101375621Y-95961963D01*
X101137916Y-96136114D01*
X100887553Y-96294476D01*
X100611460Y-96446565D01*
X100581161Y-96462404D01*
X100478089Y-96518384D01*
X100397587Y-96565409D01*
X100347151Y-96598939D01*
X100334278Y-96614435D01*
X99694367Y-96614435D01*
X99680468Y-96597741D01*
X99628587Y-96562287D01*
X99547647Y-96514417D01*
X99445325Y-96458977D01*
X99414352Y-96442727D01*
X99082702Y-96254384D01*
X98784935Y-96055341D01*
X98505874Y-95834636D01*
X98230343Y-95581303D01*
X98020558Y-95375676D01*
X98289743Y-95375676D01*
X98503930Y-95579005D01*
X98636804Y-95698733D01*
X98909727Y-95913911D01*
X99205178Y-96112645D01*
X99508307Y-96285306D01*
X99804265Y-96422265D01*
X99849687Y-96440371D01*
X99938388Y-96474399D01*
X100003837Y-96497672D01*
X100034369Y-96505948D01*
X100045145Y-96502914D01*
X100094912Y-96483886D01*
X100173505Y-96451361D01*
X100269635Y-96409946D01*
X100429568Y-96335703D01*
X100812022Y-96124899D01*
X101179275Y-95876133D01*
X101517959Y-95598098D01*
X101581489Y-95539793D01*
X101653359Y-95471639D01*
X101703973Y-95420941D01*
X101725127Y-95395714D01*
X101721210Y-95390678D01*
X101680950Y-95381790D01*
X101606287Y-95375647D01*
X101507942Y-95373355D01*
X101504700Y-95373352D01*
X101185819Y-95351637D01*
X100854483Y-95289471D01*
X100523414Y-95189952D01*
X100205334Y-95056179D01*
X100020492Y-94966046D01*
X99835475Y-95054166D01*
X99610563Y-95152160D01*
X99243713Y-95273750D01*
X98878137Y-95348238D01*
X98518388Y-95374515D01*
X98289743Y-95375676D01*
X98020558Y-95375676D01*
X98012561Y-95367837D01*
X97774614Y-95318688D01*
X97580557Y-95271608D01*
X97218146Y-95145847D01*
X96869841Y-94976067D01*
X96541564Y-94766283D01*
X96239237Y-94520509D01*
X95968782Y-94242758D01*
X95736121Y-93937045D01*
X95699281Y-93882234D01*
X95645650Y-93806557D01*
X95610866Y-93766213D01*
X95594724Y-93763183D01*
X95404726Y-93763183D01*
X95361026Y-93611741D01*
X95249775Y-93049982D01*
X95233412Y-92929429D01*
X95208242Y-92653955D01*
X95194149Y-92351511D01*
X95191142Y-92036995D01*
X95191562Y-92020805D01*
X95378227Y-92020805D01*
X95389234Y-92398043D01*
X95441109Y-92766354D01*
X95533891Y-93115511D01*
X95602913Y-93299555D01*
X95770344Y-93640500D01*
X95979060Y-93957775D01*
X96225238Y-94247616D01*
X96505052Y-94506263D01*
X96814676Y-94729951D01*
X97150286Y-94914919D01*
X97508056Y-95057404D01*
X97596451Y-95084954D01*
X97708227Y-95113549D01*
X97775737Y-95120631D01*
X97798374Y-95106098D01*
X97794986Y-95097174D01*
X97769140Y-95056657D01*
X97726187Y-94999005D01*
X97594398Y-94816154D01*
X97433120Y-94551913D01*
X97280448Y-94258427D01*
X97141943Y-93947425D01*
X97023169Y-93630633D01*
X96929689Y-93319781D01*
X96927295Y-93310503D01*
X96887637Y-93124108D01*
X97074440Y-93124108D01*
X97083098Y-93174437D01*
X97104120Y-93257788D01*
X97134637Y-93364658D01*
X97171779Y-93485545D01*
X97212676Y-93610947D01*
X97254459Y-93731361D01*
X97294257Y-93837287D01*
X97391180Y-94061356D01*
X97508649Y-94297589D01*
X97637965Y-94529384D01*
X97772644Y-94745753D01*
X97906207Y-94935707D01*
X98032171Y-95088260D01*
X98048613Y-95106098D01*
X98132372Y-95196966D01*
X98412645Y-95193190D01*
X98524283Y-95191418D01*
X98638923Y-95187987D01*
X98731734Y-95181827D01*
X98818952Y-95171331D01*
X98916813Y-95154890D01*
X99041552Y-95130896D01*
X99133628Y-95110207D01*
X99260565Y-95075718D01*
X99392499Y-95034681D01*
X99520491Y-94990385D01*
X99635601Y-94946122D01*
X99728889Y-94905182D01*
X99791418Y-94870857D01*
X99813256Y-94847497D01*
X100217965Y-94847497D01*
X100220098Y-94851817D01*
X100254681Y-94874823D01*
X100323778Y-94908574D01*
X100417284Y-94948993D01*
X100525094Y-94992002D01*
X100637101Y-95033522D01*
X100743201Y-95069478D01*
X100833287Y-95095790D01*
X100940620Y-95120681D01*
X101082749Y-95148858D01*
X101211925Y-95170057D01*
X101249243Y-95174714D01*
X101377392Y-95186083D01*
X101522254Y-95193997D01*
X101659082Y-95196966D01*
X101912770Y-95196966D01*
X101985639Y-95115071D01*
X101999944Y-95098789D01*
X102131064Y-94933109D01*
X102269233Y-94732689D01*
X102407345Y-94509532D01*
X102538293Y-94275639D01*
X102654970Y-94043011D01*
X102750272Y-93823652D01*
X102756193Y-93808392D01*
X102791218Y-93711188D01*
X102830055Y-93594364D01*
X102869350Y-93469138D01*
X102905751Y-93346727D01*
X102935903Y-93238348D01*
X102956454Y-93155220D01*
X102964049Y-93108559D01*
X102950541Y-93108092D01*
X102914577Y-93140660D01*
X102864024Y-93199342D01*
X102804062Y-93268788D01*
X102627591Y-93429021D01*
X102420339Y-93567939D01*
X102195551Y-93677426D01*
X102155607Y-93689970D01*
X101966470Y-93749366D01*
X101880530Y-93766275D01*
X101767337Y-93779775D01*
X101641777Y-93783241D01*
X101485141Y-93777777D01*
X101381412Y-93773694D01*
X101287380Y-93773206D01*
X101223631Y-93776680D01*
X101200160Y-93783903D01*
X101193428Y-93799647D01*
X101162734Y-93850363D01*
X101112885Y-93925422D01*
X101050153Y-94015154D01*
X101023043Y-94052187D01*
X100903437Y-94201201D01*
X100765169Y-94355893D01*
X100619811Y-94504307D01*
X100478932Y-94634484D01*
X100354105Y-94734465D01*
X100286950Y-94784612D01*
X100237181Y-94825847D01*
X100218906Y-94846437D01*
X100217965Y-94847497D01*
X99813256Y-94847497D01*
X99814247Y-94846437D01*
X99813677Y-94844633D01*
X99788855Y-94819110D01*
X99734650Y-94774390D01*
X99661176Y-94718900D01*
X99626723Y-94692863D01*
X99492483Y-94577770D01*
X99346794Y-94435497D01*
X99201218Y-94278356D01*
X99067318Y-94118658D01*
X98956658Y-93968717D01*
X98818910Y-93764731D01*
X98529128Y-93778082D01*
X98456504Y-93780437D01*
X98184392Y-93767974D01*
X97985748Y-93727454D01*
X99018774Y-93727454D01*
X99052705Y-93794163D01*
X99124393Y-93899543D01*
X99222002Y-94022481D01*
X99338250Y-94155067D01*
X99465854Y-94289393D01*
X99597532Y-94417547D01*
X99726000Y-94531620D01*
X99843976Y-94623702D01*
X99870010Y-94642134D01*
X99944077Y-94693556D01*
X99997577Y-94729158D01*
X100020350Y-94742118D01*
X100020963Y-94741916D01*
X100047493Y-94725591D01*
X100103163Y-94688445D01*
X100176909Y-94637847D01*
X100282274Y-94559382D01*
X100480222Y-94386389D01*
X100674940Y-94186131D01*
X100853977Y-93971856D01*
X101004883Y-93756811D01*
X101046915Y-93689970D01*
X100909441Y-93622710D01*
X100826547Y-93576725D01*
X101335409Y-93576725D01*
X101354928Y-93584560D01*
X101417644Y-93592660D01*
X101509337Y-93596595D01*
X101617312Y-93596458D01*
X101728875Y-93592341D01*
X101831330Y-93584336D01*
X101911982Y-93572536D01*
X102003231Y-93549918D01*
X102237260Y-93457899D01*
X102453353Y-93324131D01*
X102645857Y-93154152D01*
X102809117Y-92953499D01*
X102937479Y-92727709D01*
X103025288Y-92482317D01*
X103042117Y-92400474D01*
X103059611Y-92234277D01*
X103062783Y-92053314D01*
X103051611Y-91878608D01*
X103026074Y-91731179D01*
X102980359Y-91585148D01*
X102867553Y-91345087D01*
X102717282Y-91128854D01*
X102534848Y-90942418D01*
X102325555Y-90791748D01*
X102094704Y-90682813D01*
X102066090Y-90673750D01*
X101971025Y-90652581D01*
X101854001Y-90634978D01*
X101726952Y-90621790D01*
X101601811Y-90613869D01*
X101490512Y-90612066D01*
X101404991Y-90617232D01*
X101357180Y-90630219D01*
X101349400Y-90638125D01*
X101345263Y-90669419D01*
X101361652Y-90726563D01*
X101400656Y-90818595D01*
X101408372Y-90835825D01*
X101512016Y-91117930D01*
X101589038Y-91430770D01*
X101636917Y-91761572D01*
X101653131Y-92097561D01*
X101652831Y-92107372D01*
X101645657Y-92342133D01*
X101605819Y-92690418D01*
X101529226Y-93023549D01*
X101413169Y-93355735D01*
X101393760Y-93404283D01*
X101361199Y-93490161D01*
X101340475Y-93551258D01*
X101335409Y-93576725D01*
X100826547Y-93576725D01*
X100767262Y-93543837D01*
X100542524Y-93375534D01*
X100348585Y-93171827D01*
X100191042Y-92939022D01*
X100075493Y-92683424D01*
X100044326Y-92605492D01*
X100016563Y-92559302D01*
X99997632Y-92554813D01*
X99990616Y-92595230D01*
X99986676Y-92621577D01*
X99960867Y-92696471D01*
X99915967Y-92795396D01*
X99857822Y-92906780D01*
X99792277Y-93019050D01*
X99725179Y-93120637D01*
X99621659Y-93249682D01*
X99418738Y-93438539D01*
X99217039Y-93570728D01*
X99176494Y-93597300D01*
X99083352Y-93652687D01*
X99029662Y-93696456D01*
X99018774Y-93727454D01*
X97985748Y-93727454D01*
X97940023Y-93718127D01*
X97715637Y-93627983D01*
X97503471Y-93494627D01*
X97295766Y-93315149D01*
X97212941Y-93235235D01*
X97143560Y-93170392D01*
X97095439Y-93127801D01*
X97075827Y-93114089D01*
X97074440Y-93124108D01*
X96887637Y-93124108D01*
X96868500Y-93034165D01*
X96824348Y-92728704D01*
X96795813Y-92409240D01*
X96783867Y-92090889D01*
X96784934Y-92033512D01*
X96971551Y-92033512D01*
X96978390Y-92275748D01*
X97023921Y-92515551D01*
X97109498Y-92747737D01*
X97236476Y-92967121D01*
X97406208Y-93168516D01*
X97444106Y-93205158D01*
X97656016Y-93373194D01*
X97884274Y-93494222D01*
X98131191Y-93569520D01*
X98137731Y-93570851D01*
X98248492Y-93589761D01*
X98354477Y-93602164D01*
X98433572Y-93605433D01*
X98530564Y-93600014D01*
X98620094Y-93591295D01*
X98682245Y-93581044D01*
X98705517Y-93570728D01*
X98704584Y-93566767D01*
X98690845Y-93527726D01*
X98664120Y-93457337D01*
X98628811Y-93367285D01*
X98593566Y-93274978D01*
X98473733Y-92879119D01*
X98402269Y-92479631D01*
X98379502Y-92084962D01*
X98571318Y-92084962D01*
X98573622Y-92250701D01*
X98593973Y-92530854D01*
X98638135Y-92791573D01*
X98709560Y-93050676D01*
X98811698Y-93325984D01*
X98857726Y-93427744D01*
X98897063Y-93489071D01*
X98930087Y-93508672D01*
X98963797Y-93501239D01*
X99037522Y-93467345D01*
X99130655Y-93412508D01*
X99232147Y-93343885D01*
X99330946Y-93268635D01*
X99416002Y-93193916D01*
X99492256Y-93114883D01*
X99655215Y-92897225D01*
X99773544Y-92657264D01*
X99845932Y-92398082D01*
X99861737Y-92224987D01*
X100173472Y-92224987D01*
X100197093Y-92429219D01*
X100250316Y-92619679D01*
X100336523Y-92812861D01*
X100414027Y-92937711D01*
X100523606Y-93077340D01*
X100649522Y-93212287D01*
X100779052Y-93328972D01*
X100899476Y-93413814D01*
X100940384Y-93436252D01*
X101019729Y-93474345D01*
X101080015Y-93496630D01*
X101105420Y-93501588D01*
X101137928Y-93495337D01*
X101165848Y-93461833D01*
X101200494Y-93391172D01*
X101230970Y-93321460D01*
X101292806Y-93161081D01*
X101348111Y-92985769D01*
X101402687Y-92777918D01*
X101412391Y-92734816D01*
X101441369Y-92549642D01*
X101459432Y-92335283D01*
X101466386Y-92107372D01*
X101462034Y-91881540D01*
X101446182Y-91673419D01*
X101418636Y-91498641D01*
X101388721Y-91375285D01*
X101341893Y-91209936D01*
X101288951Y-91044794D01*
X101235212Y-90896264D01*
X101185993Y-90780756D01*
X101182530Y-90773659D01*
X101153601Y-90724925D01*
X101121133Y-90702118D01*
X101075487Y-90705683D01*
X101007026Y-90736067D01*
X100906109Y-90793717D01*
X100746780Y-90900663D01*
X100574009Y-91058270D01*
X100423436Y-91251632D01*
X100407398Y-91275903D01*
X100305213Y-91452384D01*
X100236118Y-91623813D01*
X100194422Y-91807803D01*
X100174431Y-92021966D01*
X100173955Y-92122759D01*
X100173472Y-92224987D01*
X99861737Y-92224987D01*
X99871071Y-92122759D01*
X99866402Y-91981992D01*
X99824107Y-91712659D01*
X99736975Y-91465341D01*
X99603972Y-91237508D01*
X99424066Y-91026628D01*
X99414853Y-91017513D01*
X99309369Y-90922554D01*
X99200697Y-90839423D01*
X99096755Y-90772728D01*
X99005458Y-90727074D01*
X98934724Y-90707068D01*
X98892468Y-90717315D01*
X98871550Y-90747550D01*
X98833179Y-90825799D01*
X98788893Y-90934970D01*
X98742455Y-91064399D01*
X98697626Y-91203423D01*
X98658166Y-91341378D01*
X98627837Y-91467601D01*
X98609382Y-91563178D01*
X98587472Y-91719277D01*
X98575374Y-91886770D01*
X98571318Y-92084962D01*
X98379502Y-92084962D01*
X98379212Y-92079936D01*
X98404601Y-91683452D01*
X98478475Y-91293599D01*
X98600873Y-90913798D01*
X98602642Y-90909286D01*
X98648672Y-90786728D01*
X98674768Y-90703537D01*
X98682471Y-90653698D01*
X98673324Y-90631197D01*
X98656611Y-90624577D01*
X98590305Y-90614985D01*
X98493404Y-90611409D01*
X98379130Y-90613453D01*
X98260703Y-90620724D01*
X98151345Y-90632827D01*
X98064276Y-90649368D01*
X97893260Y-90705292D01*
X97667185Y-90819374D01*
X97470319Y-90967320D01*
X97304018Y-91143943D01*
X97169636Y-91344058D01*
X97068528Y-91562482D01*
X97002048Y-91794028D01*
X96971551Y-92033512D01*
X96784934Y-92033512D01*
X96789486Y-91788769D01*
X96813643Y-91517998D01*
X96817972Y-91486568D01*
X96889868Y-91101707D01*
X97073886Y-91101707D01*
X97086703Y-91092004D01*
X97128429Y-91052932D01*
X97191753Y-90990677D01*
X97269208Y-90912475D01*
X97405152Y-90786006D01*
X97630943Y-90625820D01*
X97872901Y-90512790D01*
X97920107Y-90500662D01*
X99007991Y-90500662D01*
X99008719Y-90503053D01*
X99036582Y-90527390D01*
X99096741Y-90565216D01*
X99178081Y-90609424D01*
X99332726Y-90705854D01*
X99497622Y-90843668D01*
X99652807Y-91006595D01*
X99788995Y-91183718D01*
X99896898Y-91364124D01*
X99967228Y-91536896D01*
X99988375Y-91595190D01*
X100013592Y-91637047D01*
X100033163Y-91643534D01*
X100041033Y-91608753D01*
X100046471Y-91587223D01*
X100070518Y-91526123D01*
X100109363Y-91439276D01*
X100158167Y-91337870D01*
X100159495Y-91335200D01*
X100226159Y-91210097D01*
X100292961Y-91107944D01*
X100373115Y-91010778D01*
X100479838Y-90900636D01*
X100561557Y-90823682D01*
X100714370Y-90699062D01*
X100853861Y-90610855D01*
X100869068Y-90602824D01*
X100947396Y-90557303D01*
X101002606Y-90518238D01*
X101023559Y-90493344D01*
X101021669Y-90483929D01*
X100995927Y-90434491D01*
X100945119Y-90358807D01*
X100875735Y-90265182D01*
X100794266Y-90161921D01*
X100707201Y-90057330D01*
X100621030Y-89959715D01*
X100542243Y-89877381D01*
X100508946Y-89845277D01*
X100415693Y-89761000D01*
X100315603Y-89676830D01*
X100217476Y-89599551D01*
X100130114Y-89535950D01*
X100062317Y-89492813D01*
X100022886Y-89476926D01*
X99995595Y-89485517D01*
X99932113Y-89522906D01*
X99846462Y-89583959D01*
X99746893Y-89662126D01*
X99641658Y-89750860D01*
X99539008Y-89843609D01*
X99447195Y-89933827D01*
X99392564Y-89992061D01*
X99301217Y-90095347D01*
X99212375Y-90202061D01*
X99132334Y-90304078D01*
X99067391Y-90393268D01*
X99023845Y-90461505D01*
X99007991Y-90500662D01*
X97920107Y-90500662D01*
X98133631Y-90445804D01*
X98415736Y-90423753D01*
X98481285Y-90424350D01*
X98591843Y-90427972D01*
X98681809Y-90434147D01*
X98736284Y-90442025D01*
X98756685Y-90446595D01*
X98788867Y-90444939D01*
X98820308Y-90423361D01*
X98860098Y-90374219D01*
X98917331Y-90289872D01*
X99056063Y-90095498D01*
X99289334Y-89823875D01*
X99541319Y-89589766D01*
X99608396Y-89534626D01*
X99690636Y-89466584D01*
X99753662Y-89413921D01*
X99787564Y-89384883D01*
X99792539Y-89379888D01*
X99797906Y-89360813D01*
X99790151Y-89352571D01*
X100242139Y-89352571D01*
X100242838Y-89360813D01*
X100244497Y-89380362D01*
X100276185Y-89412083D01*
X100333291Y-89452708D01*
X100370604Y-89479675D01*
X100484209Y-89574225D01*
X100613307Y-89695428D01*
X100747947Y-89832885D01*
X100878176Y-89976197D01*
X100994042Y-90114966D01*
X101085593Y-90238791D01*
X101233922Y-90458890D01*
X101336733Y-90440379D01*
X101410242Y-90430845D01*
X101552735Y-90423956D01*
X101709634Y-90426434D01*
X101859604Y-90437721D01*
X101981311Y-90457258D01*
X102006430Y-90463828D01*
X102095225Y-90493344D01*
X102104401Y-90496394D01*
X102220296Y-90542137D01*
X102334089Y-90593332D01*
X102443921Y-90650811D01*
X102544456Y-90716105D01*
X102643849Y-90797264D01*
X102758221Y-90906181D01*
X102779003Y-90926914D01*
X102858293Y-91005502D01*
X102912100Y-91054007D01*
X102942492Y-91069330D01*
X102951540Y-91048374D01*
X102941310Y-90988041D01*
X102913873Y-90885231D01*
X102871298Y-90736847D01*
X102800434Y-90519288D01*
X102671187Y-90201791D01*
X102512911Y-89880349D01*
X102332850Y-89569327D01*
X102138248Y-89283091D01*
X102072417Y-89194409D01*
X102008798Y-89114642D01*
X101974256Y-89081915D01*
X102241930Y-89081915D01*
X102249277Y-89101924D01*
X102280759Y-89155161D01*
X102331500Y-89232788D01*
X102396083Y-89326220D01*
X102496851Y-89480647D01*
X102610206Y-89676870D01*
X102724361Y-89894214D01*
X102832334Y-90118761D01*
X102927144Y-90336592D01*
X103001809Y-90533789D01*
X103068587Y-90745860D01*
X103139392Y-91048374D01*
X103177956Y-91213136D01*
X103240089Y-91689471D01*
X103251681Y-92053314D01*
X103255406Y-92170240D01*
X103224324Y-92650822D01*
X103150185Y-93108559D01*
X103147264Y-93126593D01*
X103024643Y-93592931D01*
X102856880Y-94045211D01*
X102644395Y-94478811D01*
X102602261Y-94552876D01*
X102525932Y-94680516D01*
X102450136Y-94800588D01*
X102386358Y-94894585D01*
X102372976Y-94913173D01*
X102316460Y-94992415D01*
X102272358Y-95055401D01*
X102249275Y-95089873D01*
X102244646Y-95100287D01*
X102259743Y-95118784D01*
X102319107Y-95115774D01*
X102421807Y-95091387D01*
X102566909Y-95045753D01*
X102745909Y-94978889D01*
X103093873Y-94810180D01*
X103414882Y-94601304D01*
X103706151Y-94355465D01*
X103964894Y-94075871D01*
X104188327Y-93765726D01*
X104373663Y-93428237D01*
X104518117Y-93066610D01*
X104618903Y-92684051D01*
X104625076Y-92650677D01*
X104646748Y-92478312D01*
X104659112Y-92277825D01*
X104662204Y-92064753D01*
X104656059Y-91854634D01*
X104640713Y-91663003D01*
X104616202Y-91505398D01*
X104565668Y-91298322D01*
X104439033Y-90923567D01*
X104272630Y-90578223D01*
X104065049Y-90259576D01*
X103814879Y-89964915D01*
X103767664Y-89916373D01*
X103542047Y-89705569D01*
X103314136Y-89530948D01*
X103069724Y-89382562D01*
X102794606Y-89250464D01*
X102788270Y-89247742D01*
X102671821Y-89200823D01*
X102552228Y-89157560D01*
X102439468Y-89120996D01*
X102343515Y-89094172D01*
X102274344Y-89080131D01*
X102241930Y-89081915D01*
X101974256Y-89081915D01*
X101953664Y-89062405D01*
X101895239Y-89032023D01*
X101821749Y-89017822D01*
X101721418Y-89014129D01*
X101582473Y-89015269D01*
X101231534Y-89037279D01*
X100864398Y-89103969D01*
X100520379Y-89214826D01*
X100450164Y-89243041D01*
X100341060Y-89288885D01*
X100273023Y-89323737D01*
X100242139Y-89352571D01*
X99790151Y-89352571D01*
X99776487Y-89338050D01*
X99721651Y-89306493D01*
X99626770Y-89261035D01*
X99426200Y-89182028D01*
X99192476Y-89113504D01*
X98944012Y-89059865D01*
X98695378Y-89023733D01*
X98461147Y-89007727D01*
X98255890Y-89014470D01*
X98230083Y-89017163D01*
X98151200Y-89028789D01*
X98097982Y-89049466D01*
X98051697Y-89089543D01*
X97993614Y-89159367D01*
X97969663Y-89189755D01*
X97750312Y-89499271D01*
X97548439Y-89839600D01*
X97370837Y-90197196D01*
X97224300Y-90558515D01*
X97115620Y-90910011D01*
X97110311Y-90930945D01*
X97089661Y-91016493D01*
X97076644Y-91077433D01*
X97073886Y-91101707D01*
X96889868Y-91101707D01*
X96911822Y-90984184D01*
X97048600Y-90505490D01*
X97227678Y-90052089D01*
X97448428Y-89625586D01*
X97710222Y-89227586D01*
X97734122Y-89194612D01*
X97780256Y-89124429D01*
X97795706Y-89085661D01*
X97782615Y-89073752D01*
X97772665Y-89074488D01*
X97710998Y-89088140D01*
X97617247Y-89115971D01*
X97502729Y-89153983D01*
X97378760Y-89198179D01*
X97256654Y-89244561D01*
X97147729Y-89289130D01*
X97063299Y-89327889D01*
X96934944Y-89397038D01*
X96627857Y-89599896D01*
X96343493Y-89841302D01*
X96087272Y-90115054D01*
X95864617Y-90414951D01*
X95680948Y-90734792D01*
X95541688Y-91068375D01*
X95478660Y-91280460D01*
X95408049Y-91644868D01*
X95378227Y-92020805D01*
X95191562Y-92020805D01*
X95199228Y-91725307D01*
X95218416Y-91431346D01*
X95248715Y-91170013D01*
X95251823Y-91149414D01*
X95363149Y-90579721D01*
X95393546Y-90473597D01*
X95586447Y-90473597D01*
X95592537Y-90469973D01*
X95621420Y-90435369D01*
X95667612Y-90371952D01*
X95724567Y-90288495D01*
X95835244Y-90131719D01*
X96095472Y-89824727D01*
X96387624Y-89554085D01*
X96708141Y-89322197D01*
X97053464Y-89131470D01*
X97420032Y-88984308D01*
X97804286Y-88883117D01*
X98012561Y-88841983D01*
X98041446Y-88813920D01*
X98300432Y-88813920D01*
X98597469Y-88830707D01*
X98690532Y-88837442D01*
X98844103Y-88853398D01*
X98991506Y-88873707D01*
X99110633Y-88895577D01*
X99128613Y-88899681D01*
X99284694Y-88941865D01*
X99457603Y-88997891D01*
X99630801Y-89061714D01*
X99787751Y-89127285D01*
X99911915Y-89188559D01*
X99951795Y-89210515D01*
X100003675Y-89237790D01*
X100025308Y-89247195D01*
X100028137Y-89245540D01*
X100062696Y-89227361D01*
X100127972Y-89193719D01*
X100213236Y-89150152D01*
X100319754Y-89098757D01*
X100671810Y-88965485D01*
X101048024Y-88875859D01*
X101446992Y-88830245D01*
X101731622Y-88813935D01*
X101648579Y-88727335D01*
X101570091Y-88650694D01*
X101434429Y-88531536D01*
X101277127Y-88404559D01*
X101110829Y-88279866D01*
X100948176Y-88167561D01*
X100941790Y-88163385D01*
X100814710Y-88084480D01*
X100672575Y-88002734D01*
X100525033Y-87923051D01*
X100381727Y-87850333D01*
X100252303Y-87789485D01*
X100146407Y-87745409D01*
X100073684Y-87723008D01*
X100071546Y-87722627D01*
X99984643Y-87726579D01*
X99865660Y-87759303D01*
X99720774Y-87817109D01*
X99556166Y-87896307D01*
X99378013Y-87993209D01*
X99192495Y-88104126D01*
X99005790Y-88225368D01*
X98824078Y-88353246D01*
X98653537Y-88484072D01*
X98500345Y-88614155D01*
X98370683Y-88739807D01*
X98300432Y-88813920D01*
X98041446Y-88813920D01*
X98251946Y-88609407D01*
X98354461Y-88511425D01*
X98457785Y-88415470D01*
X98549416Y-88333009D01*
X98617323Y-88275052D01*
X98736074Y-88184733D01*
X98909237Y-88065097D01*
X99100281Y-87943219D01*
X99293720Y-87828915D01*
X99474069Y-87731999D01*
X99726053Y-87605068D01*
X99721640Y-87603532D01*
X100305616Y-87603532D01*
X100308654Y-87605068D01*
X100564364Y-87734342D01*
X100744483Y-87829512D01*
X101125438Y-88062887D01*
X101475269Y-88326101D01*
X101804922Y-88627028D01*
X101992294Y-88813935D01*
X102019109Y-88840683D01*
X102233295Y-88883385D01*
X102418036Y-88925990D01*
X102789861Y-89047791D01*
X103143870Y-89212395D01*
X103474292Y-89416462D01*
X103775355Y-89656653D01*
X104041289Y-89929628D01*
X104064302Y-89956925D01*
X104157777Y-90073541D01*
X104251924Y-90198297D01*
X104329461Y-90308474D01*
X104372412Y-90372380D01*
X104414704Y-90431784D01*
X104436992Y-90455164D01*
X104443435Y-90446373D01*
X104438190Y-90409267D01*
X104433169Y-90386845D01*
X104411710Y-90307970D01*
X104380522Y-90204987D01*
X104344480Y-90094287D01*
X104155634Y-89604430D01*
X103910450Y-89101961D01*
X103621670Y-88621754D01*
X103291688Y-88167765D01*
X102922896Y-87743951D01*
X102845639Y-87662704D01*
X103113520Y-87662704D01*
X103330398Y-87920956D01*
X103386589Y-87989035D01*
X103647208Y-88335528D01*
X103893788Y-88712793D01*
X104118592Y-89107453D01*
X104313888Y-89506130D01*
X104471942Y-89895449D01*
X104595161Y-90275054D01*
X104636839Y-90446373D01*
X104727956Y-90820909D01*
X104813170Y-91376415D01*
X104850751Y-91937358D01*
X104848462Y-92064753D01*
X104840648Y-92499525D01*
X104782810Y-93058702D01*
X104677186Y-93610675D01*
X104632938Y-93766536D01*
X104523724Y-94151232D01*
X104508532Y-94196242D01*
X104356210Y-94593169D01*
X104172190Y-94991568D01*
X103962420Y-95381072D01*
X103732846Y-95751315D01*
X103489412Y-96091932D01*
X103238066Y-96392557D01*
X103223352Y-96408899D01*
X103171695Y-96471468D01*
X103143368Y-96514977D01*
X103144209Y-96530829D01*
X103188061Y-96520190D01*
X103268962Y-96490789D01*
X103374983Y-96447177D01*
X103495911Y-96393864D01*
X103621531Y-96335362D01*
X103741630Y-96276184D01*
X103845993Y-96220840D01*
X104016870Y-96120666D01*
X104306661Y-95924960D01*
X104586333Y-95700134D01*
X104868318Y-95436652D01*
X104896272Y-95408725D01*
X105077991Y-95220686D01*
X105230682Y-95048397D01*
X105364373Y-94879281D01*
X105489093Y-94700758D01*
X105614871Y-94500248D01*
X105699343Y-94351658D01*
X105861600Y-94016389D01*
X106003234Y-93654617D01*
X106118678Y-93281397D01*
X106202363Y-92911783D01*
X106218247Y-92807714D01*
X106237574Y-92620309D01*
X106251312Y-92407316D01*
X106259023Y-92183441D01*
X106260268Y-91963392D01*
X106254611Y-91761874D01*
X106241614Y-91593593D01*
X106200545Y-91310879D01*
X106094809Y-90846602D01*
X105944643Y-90396652D01*
X105752298Y-89965274D01*
X105520027Y-89556712D01*
X105250081Y-89175213D01*
X104944712Y-88825020D01*
X104606171Y-88510380D01*
X104394044Y-88344299D01*
X104113172Y-88151085D01*
X103821812Y-87976739D01*
X103532874Y-87828886D01*
X103259271Y-87715148D01*
X103113520Y-87662704D01*
X102845639Y-87662704D01*
X102724664Y-87535480D01*
X102422283Y-87481571D01*
X102396318Y-87477072D01*
X102127694Y-87443113D01*
X101833991Y-87425757D01*
X101527486Y-87424466D01*
X101220457Y-87438702D01*
X100925183Y-87467930D01*
X100653941Y-87511611D01*
X100419009Y-87569209D01*
X100305616Y-87603532D01*
X99721640Y-87603532D01*
X99632001Y-87572330D01*
X99630356Y-87571766D01*
X99567517Y-87554483D01*
X99468733Y-87531950D01*
X99347228Y-87507023D01*
X99216228Y-87482556D01*
X99206997Y-87480937D01*
X98984786Y-87450776D01*
X98739037Y-87431888D01*
X98480193Y-87423962D01*
X98218699Y-87426687D01*
X97964997Y-87439754D01*
X97729533Y-87462851D01*
X97522750Y-87495669D01*
X97355091Y-87537895D01*
X97340907Y-87544048D01*
X97278708Y-87587897D01*
X97198879Y-87659825D01*
X97193165Y-87664973D01*
X97089456Y-87769884D01*
X96972765Y-87897237D01*
X96848271Y-88041640D01*
X96721155Y-88197700D01*
X96455852Y-88561896D01*
X96200977Y-88973154D01*
X95974513Y-89404651D01*
X95782863Y-89844145D01*
X95632431Y-90279390D01*
X95626729Y-90298765D01*
X95603181Y-90384514D01*
X95588776Y-90446919D01*
X95586447Y-90473597D01*
X95393546Y-90473597D01*
X95520371Y-90030826D01*
X95723532Y-89502620D01*
X95972675Y-88994989D01*
X96267843Y-88507822D01*
X96295981Y-88466038D01*
X96357601Y-88377555D01*
X96425414Y-88284807D01*
X96504692Y-88180953D01*
X96600708Y-88059153D01*
X96718736Y-87912566D01*
X96864048Y-87734350D01*
X96925060Y-87659825D01*
X96750656Y-87724790D01*
X96395657Y-87878395D01*
X96020495Y-88086839D01*
X95657896Y-88335322D01*
X95314920Y-88618490D01*
X94998627Y-88930989D01*
X94716079Y-89267466D01*
X94574701Y-89464775D01*
X94333005Y-89865984D01*
X94132202Y-90291443D01*
X93973767Y-90735832D01*
X93859176Y-91193827D01*
X93789904Y-91660106D01*
X93767428Y-92129345D01*
X93407478Y-92129345D01*
X93407340Y-92061563D01*
X93411235Y-91814757D01*
X93419428Y-91579607D01*
X93430572Y-91390009D01*
X93621794Y-91390009D01*
X93622594Y-91425275D01*
X93629458Y-91422183D01*
X93640121Y-91380564D01*
X93651350Y-91308228D01*
X93667119Y-91205858D01*
X93705950Y-91016934D01*
X93757793Y-90810529D01*
X93818111Y-90604171D01*
X93882369Y-90415390D01*
X93896892Y-90376801D01*
X94093686Y-89928602D01*
X94331686Y-89505441D01*
X94608094Y-89110033D01*
X94920113Y-88745091D01*
X95264943Y-88413329D01*
X95639788Y-88117461D01*
X96041849Y-87860201D01*
X96468329Y-87644262D01*
X96916430Y-87472360D01*
X96976011Y-87452646D01*
X97098728Y-87408191D01*
X97190415Y-87366831D01*
X97263949Y-87322239D01*
X97323339Y-87275121D01*
X97629241Y-87275121D01*
X97645706Y-87276860D01*
X97703587Y-87274537D01*
X97792510Y-87267552D01*
X97901583Y-87256643D01*
X98063033Y-87244650D01*
X98258501Y-87239099D01*
X98473273Y-87239678D01*
X98693444Y-87245988D01*
X98905107Y-87257629D01*
X99094355Y-87274202D01*
X99247283Y-87295308D01*
X99296871Y-87304732D01*
X99438619Y-87335515D01*
X99592220Y-87372977D01*
X99732163Y-87411029D01*
X99741974Y-87413889D01*
X99863979Y-87448772D01*
X99951882Y-87470151D01*
X100019060Y-87478586D01*
X100078891Y-87474633D01*
X100144752Y-87458851D01*
X100230021Y-87431798D01*
X100231921Y-87431179D01*
X100417776Y-87378528D01*
X100636417Y-87329517D01*
X100870439Y-87287645D01*
X101102433Y-87256411D01*
X101138786Y-87252969D01*
X101264576Y-87245857D01*
X101419956Y-87241977D01*
X101593502Y-87241143D01*
X101773795Y-87243173D01*
X101949412Y-87247882D01*
X102108934Y-87255086D01*
X102240939Y-87264601D01*
X102334005Y-87276244D01*
X102338778Y-87277105D01*
X102392251Y-87284579D01*
X102405319Y-87276669D01*
X102386298Y-87249050D01*
X102364889Y-87227335D01*
X102299364Y-87172388D01*
X102204385Y-87099867D01*
X102088255Y-87015634D01*
X101959279Y-86925548D01*
X101825760Y-86835472D01*
X101696002Y-86751265D01*
X101578309Y-86678788D01*
X101491305Y-86628343D01*
X101134892Y-86442834D01*
X100752590Y-86273942D01*
X100363550Y-86130314D01*
X100018309Y-86015735D01*
X99657994Y-86135179D01*
X99455506Y-86207670D01*
X99168902Y-86325025D01*
X98877681Y-86459038D01*
X98599932Y-86601274D01*
X98353744Y-86743301D01*
X98306506Y-86773144D01*
X98201085Y-86842660D01*
X98087269Y-86920759D01*
X97972221Y-87002183D01*
X97863106Y-87081672D01*
X97767086Y-87153969D01*
X97691327Y-87213815D01*
X97642990Y-87255952D01*
X97629241Y-87275121D01*
X97323339Y-87275121D01*
X97332204Y-87268088D01*
X97391472Y-87216999D01*
X97756631Y-86927800D01*
X98145411Y-86659959D01*
X98547270Y-86419852D01*
X98951672Y-86213856D01*
X99348077Y-86048348D01*
X99405300Y-86026985D01*
X99496858Y-85991410D01*
X99564069Y-85963460D01*
X99595386Y-85947828D01*
X99595377Y-85947746D01*
X100444208Y-85947746D01*
X100444263Y-85947828D01*
X100448590Y-85954306D01*
X100486723Y-85975146D01*
X100551301Y-85998028D01*
X100598741Y-86013805D01*
X100691457Y-86048282D01*
X100804461Y-86092920D01*
X100922978Y-86141996D01*
X101328947Y-86331117D01*
X101786664Y-86589018D01*
X102228703Y-86888950D01*
X102661668Y-87235066D01*
X102712282Y-87276669D01*
X102739395Y-87298955D01*
X102809968Y-87347397D01*
X102886920Y-87387194D01*
X102984338Y-87425624D01*
X103116309Y-87469966D01*
X103356006Y-87555114D01*
X103785350Y-87747656D01*
X104195137Y-87983370D01*
X104581552Y-88258795D01*
X104940776Y-88570471D01*
X105268992Y-88914939D01*
X105562384Y-89288739D01*
X105817134Y-89688410D01*
X106029425Y-90110493D01*
X106074028Y-90211226D01*
X106120448Y-90312400D01*
X106150420Y-90370868D01*
X106164190Y-90385725D01*
X106162007Y-90356070D01*
X106144120Y-90280999D01*
X106110775Y-90159609D01*
X106062220Y-89990997D01*
X105884021Y-89449931D01*
X105657331Y-88902836D01*
X105389364Y-88378286D01*
X105077976Y-87872489D01*
X104721021Y-87381648D01*
X104316356Y-86901969D01*
X104297929Y-86881728D01*
X104194394Y-86772502D01*
X104076125Y-86653675D01*
X103950222Y-86531803D01*
X103823785Y-86413444D01*
X103703914Y-86305152D01*
X103597708Y-86213486D01*
X103512267Y-86145001D01*
X103454692Y-86106254D01*
X103449925Y-86103831D01*
X103374508Y-86074439D01*
X103260153Y-86039807D01*
X103116757Y-86002378D01*
X102954214Y-85964599D01*
X102782420Y-85928917D01*
X102611271Y-85897777D01*
X102430560Y-85873116D01*
X102204738Y-85852243D01*
X101957473Y-85837234D01*
X101702996Y-85828563D01*
X101455542Y-85826705D01*
X101229341Y-85832134D01*
X101038627Y-85845326D01*
X100955438Y-85854193D01*
X100786366Y-85874645D01*
X100645093Y-85895194D01*
X100537233Y-85914872D01*
X100468400Y-85932712D01*
X100444208Y-85947746D01*
X99595377Y-85947746D01*
X99594415Y-85938882D01*
X99555496Y-85923882D01*
X99478095Y-85907582D01*
X99369288Y-85890822D01*
X99236150Y-85874445D01*
X99085758Y-85859293D01*
X98925187Y-85846207D01*
X98761514Y-85836030D01*
X98601814Y-85829604D01*
X98278472Y-85826789D01*
X97940435Y-85840166D01*
X97610808Y-85872537D01*
X97268743Y-85925401D01*
X97252682Y-85928315D01*
X97095292Y-85960290D01*
X96930054Y-85999090D01*
X96768455Y-86041550D01*
X96621981Y-86084503D01*
X96502120Y-86124784D01*
X96420358Y-86159226D01*
X96380722Y-86186199D01*
X96307244Y-86246844D01*
X96210813Y-86332883D01*
X96097706Y-86438204D01*
X95974202Y-86556695D01*
X95846578Y-86682242D01*
X95721114Y-86808733D01*
X95604088Y-86930056D01*
X95501777Y-87040098D01*
X95420460Y-87132747D01*
X95375860Y-87186341D01*
X94989539Y-87691847D01*
X94649122Y-88216334D01*
X94355100Y-88758706D01*
X94107963Y-89317864D01*
X93908202Y-89892714D01*
X93756307Y-90482156D01*
X93652769Y-91085096D01*
X93651881Y-91091953D01*
X93637389Y-91212629D01*
X93627043Y-91315554D01*
X93621794Y-91390009D01*
X93430572Y-91390009D01*
X93431827Y-91368656D01*
X93448336Y-91194451D01*
X93509253Y-90778200D01*
X93626754Y-90217284D01*
X93784288Y-89675222D01*
X93984888Y-89141995D01*
X94231589Y-88607581D01*
X94352083Y-88375360D01*
X94569164Y-87994105D01*
X94800161Y-87636836D01*
X95053048Y-87292301D01*
X95335794Y-86949248D01*
X95656371Y-86596426D01*
X95659607Y-86593005D01*
X95737324Y-86509202D01*
X95797994Y-86440699D01*
X95835625Y-86394479D01*
X95844227Y-86377521D01*
X95842156Y-86377896D01*
X95806746Y-86392769D01*
X95737410Y-86426121D01*
X95643109Y-86473545D01*
X95532804Y-86530635D01*
X95201262Y-86717922D01*
X94745391Y-87023122D01*
X94318912Y-87366550D01*
X93924207Y-87745166D01*
X93563656Y-88155932D01*
X93239640Y-88595807D01*
X92954540Y-89061752D01*
X92710735Y-89550729D01*
X92510608Y-90059698D01*
X92356538Y-90585619D01*
X92353907Y-90596406D01*
X92306380Y-90797760D01*
X92268972Y-90974118D01*
X92240520Y-91136243D01*
X92219862Y-91294900D01*
X92205834Y-91460856D01*
X92197276Y-91644875D01*
X92193024Y-91857721D01*
X92191915Y-92110160D01*
X91992364Y-92110160D01*
X91989470Y-91938132D01*
X92027791Y-91383097D01*
X92113761Y-90832422D01*
X92247350Y-90289207D01*
X92428531Y-89756547D01*
X92657272Y-89237541D01*
X92711342Y-89130184D01*
X92964916Y-88678213D01*
X93245233Y-88260601D01*
X93559877Y-87866797D01*
X93916433Y-87486252D01*
X94244975Y-87183655D01*
X94671868Y-86848685D01*
X95129453Y-86546961D01*
X95610496Y-86283184D01*
X96107765Y-86062055D01*
X96313962Y-85966113D01*
X96548102Y-85813440D01*
X96873116Y-85813440D01*
X96875088Y-85814404D01*
X96909185Y-85811592D01*
X96968496Y-85797341D01*
X96981123Y-85793897D01*
X97056501Y-85776430D01*
X97158646Y-85755677D01*
X97269208Y-85735417D01*
X97359299Y-85720670D01*
X97757360Y-85672533D01*
X98173203Y-85647344D01*
X98594206Y-85644916D01*
X99007746Y-85665064D01*
X99401197Y-85707598D01*
X99761937Y-85772333D01*
X99879405Y-85797342D01*
X99977678Y-85813847D01*
X100051804Y-85818556D01*
X100114785Y-85812189D01*
X100179624Y-85795465D01*
X100231236Y-85782824D01*
X100321278Y-85764448D01*
X100435801Y-85743166D01*
X100561925Y-85721470D01*
X100612362Y-85713425D01*
X101007977Y-85667246D01*
X101428854Y-85644958D01*
X101858148Y-85646561D01*
X102279016Y-85672056D01*
X102674613Y-85721442D01*
X102688957Y-85723770D01*
X102808205Y-85742828D01*
X102907962Y-85758270D01*
X102978151Y-85768564D01*
X103008694Y-85772182D01*
X103010541Y-85771942D01*
X103002628Y-85757296D01*
X102957383Y-85722670D01*
X102880993Y-85671745D01*
X102779646Y-85608204D01*
X102659527Y-85535728D01*
X102526825Y-85458001D01*
X102387725Y-85378705D01*
X102248415Y-85301520D01*
X102115081Y-85230131D01*
X101993910Y-85168218D01*
X101976368Y-85159554D01*
X101578361Y-84974093D01*
X101196546Y-84819350D01*
X100813980Y-84688981D01*
X100413717Y-84576644D01*
X99987116Y-84468198D01*
X99780989Y-84513400D01*
X99629018Y-84548732D01*
X99217734Y-84662394D01*
X98797973Y-84802425D01*
X98384411Y-84963276D01*
X97991723Y-85139396D01*
X97634585Y-85325235D01*
X97587211Y-85352336D01*
X97476476Y-85417708D01*
X97357054Y-85490374D01*
X97236356Y-85565581D01*
X97121793Y-85638579D01*
X97020776Y-85704616D01*
X96940717Y-85758939D01*
X96889026Y-85796798D01*
X96873116Y-85813440D01*
X96548102Y-85813440D01*
X96548869Y-85812940D01*
X96704280Y-85697418D01*
X97225169Y-85351088D01*
X97777108Y-85043699D01*
X98358252Y-84776216D01*
X98966754Y-84549603D01*
X99106179Y-84503469D01*
X99235673Y-84459391D01*
X99321621Y-84426088D01*
X99363066Y-84401448D01*
X99359054Y-84383357D01*
X99308627Y-84369706D01*
X99210831Y-84358380D01*
X99064710Y-84347268D01*
X98869307Y-84334258D01*
X98512714Y-84318996D01*
X97899956Y-84331251D01*
X97287083Y-84390815D01*
X96678739Y-84496446D01*
X96079566Y-84646902D01*
X95494205Y-84840942D01*
X94927299Y-85077323D01*
X94383491Y-85354804D01*
X93867422Y-85672143D01*
X93849409Y-85684303D01*
X93395511Y-86017084D01*
X92957196Y-86388402D01*
X92543101Y-86789903D01*
X92161866Y-87213234D01*
X91822127Y-87650041D01*
X91795461Y-87687443D01*
X91465285Y-88192857D01*
X91179716Y-88715361D01*
X90937496Y-89258087D01*
X90737363Y-89824166D01*
X90578057Y-90416730D01*
X90458318Y-91038911D01*
X90452895Y-91073963D01*
X90437430Y-91184300D01*
X90425576Y-91291822D01*
X90416885Y-91405396D01*
X90410907Y-91533890D01*
X90407194Y-91686170D01*
X90405298Y-91871105D01*
X90404770Y-92097561D01*
X90213679Y-92097561D01*
X90218172Y-91694481D01*
X90237502Y-91402980D01*
X90313648Y-90795696D01*
X90436225Y-90202952D01*
X90603495Y-89626588D01*
X90813721Y-89068443D01*
X91065166Y-88530359D01*
X91356092Y-88014175D01*
X91684763Y-87521733D01*
X92049441Y-87054872D01*
X92448389Y-86615433D01*
X92879869Y-86205257D01*
X93342144Y-85826184D01*
X93833477Y-85480053D01*
X94352131Y-85168707D01*
X94896369Y-84893984D01*
X95464452Y-84657726D01*
X96054644Y-84461773D01*
X96665208Y-84307965D01*
X97294406Y-84198143D01*
X97321045Y-84194585D01*
X97630484Y-84163393D01*
X97972893Y-84144916D01*
X98334598Y-84138942D01*
X98701922Y-84145256D01*
X99061190Y-84163644D01*
X99398726Y-84193893D01*
X99700855Y-84235788D01*
X99777977Y-84248746D01*
X99880809Y-84263894D01*
X99962182Y-84270181D01*
X100039863Y-84267612D01*
X100131620Y-84256190D01*
X100255220Y-84235921D01*
X100441688Y-84207805D01*
X100805940Y-84169167D01*
X101195758Y-84145863D01*
X101596679Y-84138051D01*
X101994239Y-84145889D01*
X102373975Y-84169534D01*
X102721426Y-84209141D01*
X102776010Y-84217278D01*
X103420366Y-84339932D01*
X104046288Y-84508536D01*
X104652042Y-84722249D01*
X105235892Y-84980228D01*
X105796104Y-85281633D01*
X106330943Y-85625622D01*
X106838674Y-86011355D01*
X107317562Y-86437989D01*
X107542524Y-86663248D01*
X107961838Y-87135577D01*
X108339266Y-87635321D01*
X108674067Y-88161016D01*
X108965503Y-88711193D01*
X109212833Y-89284389D01*
X109415320Y-89879136D01*
X109572222Y-90493969D01*
X109682801Y-91127422D01*
X109689336Y-91179702D01*
X109707203Y-91378886D01*
X109719760Y-91612542D01*
X109727005Y-91868693D01*
X109728750Y-92110160D01*
X109728932Y-92135362D01*
X109725540Y-92400574D01*
G37*
%TD*%
M02*
