%TF.GenerationSoftware,KiCad,Pcbnew,(5.99.0-9211-g6536d1de72)*%
%TF.CreationDate,2021-02-22T16:11:53-08:00*%
%TF.ProjectId,SoundLens,536f756e-644c-4656-9e73-2e6b69636164,rev?*%
%TF.SameCoordinates,Original*%
%TF.FileFunction,Profile,NP*%
%FSLAX46Y46*%
G04 Gerber Fmt 4.6, Leading zero omitted, Abs format (unit mm)*
G04 Created by KiCad (PCBNEW (5.99.0-9211-g6536d1de72)) date 2021-02-22 16:11:53*
%MOMM*%
%LPD*%
G01*
G04 APERTURE LIST*
%TA.AperFunction,Profile*%
%ADD10C,0.100000*%
%TD*%
G04 APERTURE END LIST*
D10*
X116471153Y-112638760D02*
X117006771Y-111908269D01*
X117510016Y-88844890D02*
X117006771Y-88091731D01*
X115306935Y-85973778D02*
X114680551Y-85319449D01*
X91584000Y-118974000D02*
X91571042Y-121260738D01*
X82993229Y-88091731D02*
X82489984Y-88844890D01*
X117006771Y-88091731D02*
X116471153Y-87361240D01*
X117510016Y-111155110D02*
X117979929Y-110380717D01*
X119800532Y-93756916D02*
X119509366Y-92899171D01*
X120269305Y-95506403D02*
X120054005Y-94626545D01*
X79553979Y-96394815D02*
X79416183Y-97290089D01*
X89619283Y-82020071D02*
X88844890Y-82489984D01*
X119800532Y-106243084D02*
X120054005Y-105373455D01*
X120761434Y-100000000D02*
X120741674Y-99094399D01*
X82020071Y-89619283D02*
X81584383Y-90413437D01*
X84095819Y-86654807D02*
X83528847Y-87361240D01*
X85319449Y-114680551D02*
X85973778Y-115306935D01*
X115306935Y-114026222D02*
X115904181Y-113345193D01*
X117979929Y-110380717D02*
X118415617Y-109586563D01*
X105373455Y-79945995D02*
X104493597Y-79730695D01*
X81183751Y-108774161D02*
X81584383Y-109586563D01*
X120741674Y-99094399D02*
X120682430Y-98190522D01*
X114680551Y-114680551D02*
X115306935Y-114026222D01*
X81584383Y-90413437D02*
X81183751Y-91225839D01*
X90413437Y-81584383D02*
X89619283Y-82020071D01*
X102709911Y-79416183D02*
X101809478Y-79317570D01*
X118816249Y-108774161D02*
X119181064Y-107945057D01*
X90413437Y-118415617D02*
X91584000Y-118974000D01*
X84693065Y-85973778D02*
X84095819Y-86654807D01*
X84693065Y-114026222D02*
X85319449Y-114680551D01*
X92054943Y-80818936D02*
X91225839Y-81183751D01*
X79553979Y-103605185D02*
X79730695Y-104493597D01*
X91571042Y-121260738D02*
G75*
G03*
X92265073Y-122022000I694031J-64262D01*
G01*
X83528847Y-112638760D02*
X84095819Y-113345193D01*
X80199468Y-106243084D02*
X80490634Y-107100829D01*
X120583817Y-97290089D02*
X120446021Y-96394815D01*
X115904181Y-86654807D02*
X115306935Y-85973778D01*
X87361240Y-116471153D02*
X88091731Y-117006771D01*
X111908269Y-82993229D02*
X111155110Y-82489984D01*
X93756916Y-80199468D02*
X92899171Y-80490634D01*
X108352416Y-121334927D02*
X108348000Y-118960000D01*
X79730695Y-104493597D02*
X79945995Y-105373455D01*
X120741674Y-100905601D02*
X120761434Y-100000000D01*
X80490634Y-107100829D02*
X80818936Y-107945057D01*
X107100829Y-80490634D02*
X106243084Y-80199468D01*
X113345193Y-115904181D02*
X114026222Y-115306935D01*
X110380717Y-117979929D02*
X111155110Y-117510016D01*
X120446021Y-96394815D02*
X120269305Y-95506403D01*
X85973778Y-115306935D02*
X86654807Y-115904181D01*
X108348000Y-118960000D02*
X109586563Y-118415617D01*
X84095819Y-113345193D02*
X84693065Y-114026222D01*
X119181064Y-92054943D02*
X118816249Y-91225839D01*
X88091731Y-117006771D02*
X88844890Y-117510016D01*
X120682430Y-101809478D02*
X120741674Y-100905601D01*
X111155110Y-117510016D02*
X111908269Y-117006771D01*
X79317570Y-98190522D02*
X79258326Y-99094399D01*
X98190522Y-79317570D02*
X97290089Y-79416183D01*
X79317570Y-101809478D02*
X79416183Y-102709911D01*
X115904181Y-113345193D02*
X116471153Y-112638760D01*
X82020071Y-110380717D02*
X82489984Y-111155110D01*
X107591154Y-122028958D02*
G75*
G03*
X108352416Y-121334927I64262J694031D01*
G01*
X79730695Y-95506403D02*
X79553979Y-96394815D01*
X118816249Y-91225839D02*
X118415617Y-90413437D01*
X80199468Y-93756916D02*
X79945995Y-94626545D01*
X116471153Y-87361240D02*
X115904181Y-86654807D01*
X120054005Y-105373455D02*
X120269305Y-104493597D01*
X81584383Y-109586563D02*
X82020071Y-110380717D01*
X79258326Y-99094399D02*
X79238566Y-100000000D01*
X82993229Y-111908269D02*
X83528847Y-112638760D01*
X85973778Y-84693065D02*
X85319449Y-85319449D01*
X118415617Y-109586563D02*
X118816249Y-108774161D01*
X120583817Y-102709911D02*
X120682430Y-101809478D01*
X120682430Y-98190522D02*
X120583817Y-97290089D01*
X100905601Y-79258326D02*
X100000000Y-79238566D01*
X86654807Y-84095819D02*
X85973778Y-84693065D01*
X85319449Y-85319449D02*
X84693065Y-85973778D01*
X79945995Y-94626545D02*
X79730695Y-95506403D01*
X88091731Y-82993229D02*
X87361240Y-83528847D01*
X120269305Y-104493597D02*
X120446021Y-103605185D01*
X81183751Y-91225839D02*
X80818936Y-92054943D01*
X120054005Y-94626545D02*
X119800532Y-93756916D01*
X101809478Y-79317570D02*
X100905601Y-79258326D01*
X92899171Y-80490634D02*
X92054943Y-80818936D01*
X80490634Y-92899171D02*
X80199468Y-93756916D01*
X112638760Y-83528847D02*
X111908269Y-82993229D01*
X88844890Y-117510016D02*
X89619283Y-117979929D01*
X111155110Y-82489984D02*
X110380717Y-82020071D01*
X99094399Y-79258326D02*
X98190522Y-79317570D01*
X80818936Y-107945057D02*
X81183751Y-108774161D01*
X114026222Y-84693065D02*
X113345193Y-84095819D01*
X114026222Y-115306935D02*
X114680551Y-114680551D01*
X112638760Y-116471153D02*
X113345193Y-115904181D01*
X97290089Y-79416183D02*
X96394815Y-79553979D01*
X113345193Y-84095819D02*
X112638760Y-83528847D01*
X82489984Y-88844890D02*
X82020071Y-89619283D01*
X92265073Y-122022000D02*
X94886000Y-122022000D01*
X86654807Y-115904181D02*
X87361240Y-116471153D01*
X109586563Y-118415617D02*
X110380717Y-117979929D01*
X100000000Y-79238566D02*
X99094399Y-79258326D01*
X109586563Y-81584383D02*
X108774161Y-81183751D01*
X103605185Y-79553979D02*
X102709911Y-79416183D01*
X119509366Y-107100829D02*
X119800532Y-106243084D01*
X89619283Y-117979929D02*
X90413437Y-118415617D01*
X111908269Y-117006771D02*
X112638760Y-116471153D01*
X118415617Y-90413437D02*
X117979929Y-89619283D01*
X79258326Y-100905601D02*
X79317570Y-101809478D01*
X83528847Y-87361240D02*
X82993229Y-88091731D01*
X87361240Y-83528847D02*
X86654807Y-84095819D01*
X79238566Y-100000000D02*
X79258326Y-100905601D01*
X119509366Y-92899171D02*
X119181064Y-92054943D01*
X117006771Y-111908269D02*
X117510016Y-111155110D01*
X106243084Y-80199468D02*
X105373455Y-79945995D01*
X119181064Y-107945057D02*
X119509366Y-107100829D01*
X104493597Y-79730695D02*
X103605185Y-79553979D01*
X94626545Y-79945995D02*
X93756916Y-80199468D01*
X82489984Y-111155110D02*
X82993229Y-111908269D01*
X120446021Y-103605185D02*
X120583817Y-102709911D01*
X95506403Y-79730695D02*
X94626545Y-79945995D01*
X107945057Y-80818936D02*
X107100829Y-80490634D01*
X110380717Y-82020071D02*
X109586563Y-81584383D01*
X96394815Y-79553979D02*
X95506403Y-79730695D01*
X79945995Y-105373455D02*
X80199468Y-106243084D01*
X117979929Y-89619283D02*
X117510016Y-88844890D01*
X91225839Y-81183751D02*
X90413437Y-81584383D01*
X94886000Y-122022000D02*
X107591154Y-122028958D01*
X114680551Y-85319449D02*
X114026222Y-84693065D01*
X88844890Y-82489984D02*
X88091731Y-82993229D01*
X79416183Y-97290089D02*
X79317570Y-98190522D01*
X80818936Y-92054943D02*
X80490634Y-92899171D01*
X108774161Y-81183751D02*
X107945057Y-80818936D01*
X79416183Y-102709911D02*
X79553979Y-103605185D01*
M02*
