M48
; DRILL file {KiCad (5.99.0-9211-g6536d1de72)} date Monday, February 22, 2021 at 04:11:50 PM
; FORMAT={-:-/ absolute / inch / decimal}
; #@! TF.CreationDate,2021-02-22T16:11:50-08:00
; #@! TF.GenerationSoftware,Kicad,Pcbnew,(5.99.0-9211-g6536d1de72)
; #@! TF.FileFunction,Plated,1,2,PTH
FMAT,2
INCH
T1C0.0102
T2C0.0394
%
G90
G05
T1
X3.219Y-4.1771
X3.2933Y-4.361
X3.3583Y-4.3563
X3.361Y-4.2189
X3.4043Y-4.2992
X3.4327Y-3.7004
X3.4681Y-3.7543
X3.5429Y-3.7642
X3.5583Y-3.5516
X3.7173Y-4.5654
X3.7791Y-4.3689
X3.7805Y-4.4663
X3.8402Y-4.5291
X3.8681Y-4.5307
X3.8776Y-4.2122
X3.8909Y-3.2925
X3.8913Y-3.1673
X3.9169Y-4.3315
X3.9634Y-4.211
X3.9831Y-4.1362
X3.9843Y-4.4921
X3.9988Y-4.2366
X4.0497Y-4.0582
X4.0635Y-4.2363
X4.0863Y-3.2015
X4.2819Y-3.6776
X4.3949Y-3.6201
X4.4628Y-3.803
X4.4969Y-4.43
X4.5205Y-4.2087
X4.5894Y-4.215
X4.6323Y-4.2701
T2
X3.685Y-4.6333
X3.685Y-4.7333
X3.785Y-4.6333
X3.785Y-4.7333
X3.885Y-4.6333
X3.885Y-4.7333
X3.985Y-4.6333
X3.985Y-4.7333
X4.085Y-4.6333
X4.085Y-4.7333
X4.185Y-4.6333
X4.185Y-4.7333
T0
M30
